# 3ds Max Wavefront OBJ Exporter v0.97b - (c)2007 guruware
# File Created: 29.05.2020 13:13:52

#
# object zombie
#

# material
mtllib zombie.mtl
usemtl palette

v  -0.4000 0.2000 0.2000
v  -0.4000 0.1000 0.2000
v  -0.4000 0.1000 0.3000
v  -0.4000 0.1000 -0.1000
v  -0.4000 0.2000 0.1000
v  -0.4000 0.3000 0.3000
v  -0.4000 0.3000 0.1000
v  -0.4000 0.3000 -0.1000
v  -0.2000 -0.6000 -0.0000
v  -0.2000 -0.7000 -0.3000
v  -0.2000 -0.7000 -0.0000
v  -0.2000 -0.6000 -0.1000
v  -0.2000 -0.5000 -0.1000
v  -0.2000 -0.5000 -0.3000
v  -0.2000 -0.2000 -0.1000
v  -0.2000 -0.2000 -0.3000
v  -0.2000 0.0000 -0.1000
v  -0.2000 0.0000 -0.2000
v  -0.2000 0.0000 -0.3000
v  -0.2000 0.1000 -0.0000
v  -0.2000 0.0000 -0.0000
v  -0.2000 0.1000 -0.1000
v  -0.2000 0.2000 -0.1000
v  -0.2000 0.2000 -0.2000
v  -0.2000 0.6000 0.2000
v  -0.2000 0.3000 -0.1000
v  -0.2000 0.3000 0.2000
v  -0.2000 0.3000 -0.2000
v  -0.2000 0.6000 0.1000
v  -0.2000 0.7000 0.1000
v  -0.2000 0.7000 -0.2000
v  -0.1000 0.7000 0.2000
v  -0.1000 0.6000 0.1000
v  -0.1000 0.6000 0.2000
v  -0.1000 0.7000 0.1000
v  0.2000 0.2000 0.2000
v  0.2000 0.1000 0.1000
v  0.2000 0.1000 0.3000
v  0.2000 0.2000 0.1000
v  0.2000 0.1000 -0.0000
v  0.2000 0.2000 -0.0000
v  0.2000 0.3000 0.3000
v  0.2000 0.3000 0.2000
v  0.2000 0.3000 0.1000
v  -0.2000 0.1000 0.2000
v  -0.2000 0.2000 0.1000
v  -0.2000 0.2000 -0.0000
v  -0.2000 0.1000 0.3000
v  -0.2000 0.3000 0.3000
v  -0.2000 0.3000 0.1000
v  0.2000 -0.7000 -0.0000
v  0.2000 -0.7000 -0.3000
v  0.2000 -0.6000 -0.0000
v  0.2000 -0.6000 -0.1000
v  0.2000 -0.5000 -0.1000
v  0.2000 -0.5000 -0.3000
v  0.2000 -0.4000 -0.1000
v  0.2000 -0.4000 -0.3000
v  0.2000 -0.2000 -0.1000
v  0.2000 -0.2000 -0.3000
v  0.2000 0.0000 -0.1000
v  0.2000 0.0000 -0.2000
v  0.2000 0.0000 -0.3000
v  0.2000 0.0000 -0.0000
v  0.2000 0.1000 -0.1000
v  0.2000 0.2000 -0.1000
v  0.2000 0.2000 -0.2000
v  0.2000 0.3000 -0.1000
v  0.2000 0.7000 0.2000
v  0.2000 0.3000 -0.2000
v  0.2000 0.7000 -0.2000
v  0.4000 0.1000 0.3000
v  0.4000 0.1000 0.2000
v  0.4000 0.3000 0.3000
v  0.4000 0.1000 -0.1000
v  0.4000 0.3000 0.2000
v  0.4000 0.3000 -0.1000
v  0.0000 -0.5000 -0.1000
v  0.0000 -0.4000 -0.1000
v  0.0000 -0.5000 -0.3000
v  0.0000 -0.4000 -0.3000
v  0.3000 0.1000 0.2000
v  0.3000 0.1000 0.1000
v  -0.3000 0.3000 0.2000
v  -0.3000 0.3000 0.1000
# 85 vertices

vn -1.0000 0.0000 -0.0000
vn 1.0000 0.0000 -0.0000
vn 0.0000 0.0000 1.0000
vn 0.0000 0.0000 -1.0000
vn 0.0000 -1.0000 -0.0000
vn 0.0000 1.0000 -0.0000
# 6 vertex normals

vt 0.4551 0.5000 0.0000
vt 0.3691 0.5000 0.0000
vt 0.9941 0.5000 0.0000
vt 0.6426 0.5000 0.0000
# 4 texture coords

o zombie
g zombie
f 1/1/1 2/1/1 3/1/1 
f 1/2/1 4/2/1 2/2/1 
f 5/2/1 4/2/1 1/2/1 
f 6/1/1 1/1/1 3/1/1 
f 6/1/1 5/1/1 1/1/1 
f 7/2/1 4/2/1 5/2/1 
f 7/1/1 5/1/1 6/1/1 
f 8/2/1 4/2/1 7/2/1 
f 9/3/1 10/3/1 11/3/1 
f 12/3/1 10/3/1 9/3/1 
f 13/3/1 10/3/1 12/3/1 
f 14/3/1 10/3/1 13/3/1 
f 15/4/1 14/4/1 13/4/1 
f 16/4/1 14/4/1 15/4/1 
f 17/2/1 16/2/1 15/2/1 
f 18/2/1 16/2/1 17/2/1 
f 19/2/1 16/2/1 18/2/1 
f 20/2/1 17/2/1 21/2/1 
f 20/2/1 18/2/1 17/2/1 
f 22/2/1 18/2/1 20/2/1 
f 23/2/1 18/2/1 22/2/1 
f 24/2/1 18/2/1 23/2/1 
f 25/1/1 26/1/1 27/1/1 
f 25/1/1 28/1/1 26/1/1 
f 29/1/1 28/1/1 25/1/1 
f 30/1/1 28/1/1 29/1/1 
f 31/1/1 28/1/1 30/1/1 
f 32/1/1 33/1/1 34/1/1 
f 35/1/1 33/1/1 32/1/1 
f 36/1/1 37/1/1 38/1/1 
f 39/2/1 40/2/1 37/2/1 
f 39/1/1 37/1/1 36/1/1 
f 41/2/1 40/2/1 39/2/1 
f 42/1/1 36/1/1 38/1/1 
f 43/2/1 39/2/1 36/2/1 
f 43/1/1 36/1/1 42/1/1 
f 44/2/1 39/2/1 43/2/1 
f 45/2/2 20/2/2 46/2/2 
f 46/2/2 20/2/2 47/2/2 
f 48/1/2 45/1/2 49/1/2 
f 45/2/2 46/2/2 27/2/2 
f 49/1/2 45/1/2 27/1/2 
f 27/2/2 46/2/2 50/2/2 
f 51/3/2 52/3/2 53/3/2 
f 53/3/2 52/3/2 54/3/2 
f 54/3/2 52/3/2 55/3/2 
f 55/3/2 52/3/2 56/3/2 
f 55/1/2 56/1/2 57/1/2 
f 57/1/2 56/1/2 58/1/2 
f 57/4/2 58/4/2 59/4/2 
f 59/4/2 58/4/2 60/4/2 
f 59/2/2 60/2/2 61/2/2 
f 61/2/2 60/2/2 62/2/2 
f 62/2/2 60/2/2 63/2/2 
f 64/2/2 61/2/2 40/2/2 
f 61/2/2 62/2/2 40/2/2 
f 40/2/2 62/2/2 65/2/2 
f 65/2/2 62/2/2 66/2/2 
f 66/2/2 62/2/2 67/2/2 
f 43/1/2 68/1/2 69/1/2 
f 68/1/2 70/1/2 69/1/2 
f 69/1/2 70/1/2 71/1/2 
f 72/1/2 73/1/2 74/1/2 
f 73/2/2 75/2/2 76/2/2 
f 74/1/2 73/1/2 76/1/2 
f 76/2/2 75/2/2 77/2/2 
f 48/1/3 6/1/3 3/1/3 
f 49/1/3 6/1/3 48/1/3 
f 72/1/3 42/1/3 38/1/3 
f 74/1/3 42/1/3 72/1/3 
f 34/1/3 25/1/3 27/1/3 
f 43/1/3 34/1/3 27/1/3 
f 43/1/3 32/1/3 34/1/3 
f 69/1/3 32/1/3 43/1/3 
f 33/1/3 30/1/3 29/1/3 
f 35/1/3 30/1/3 33/1/3 
f 39/2/3 50/2/3 46/2/3 
f 44/2/3 50/2/3 39/2/3 
f 51/3/3 9/3/3 11/3/3 
f 53/3/3 9/3/3 51/3/3 
f 64/2/3 47/2/3 20/2/3 
f 64/2/3 20/2/3 21/2/3 
f 40/2/3 47/2/3 64/2/3 
f 41/2/3 47/2/3 40/2/3 
f 78/3/3 13/3/3 12/3/3 
f 78/4/3 15/4/3 13/4/3 
f 79/4/3 15/4/3 78/4/3 
f 54/3/3 78/3/3 12/3/3 
f 55/1/3 79/1/3 78/1/3 
f 55/3/3 78/3/3 54/3/3 
f 57/4/3 15/4/3 79/4/3 
f 57/1/3 79/1/3 55/1/3 
f 59/2/3 17/2/3 15/2/3 
f 59/4/3 15/4/3 57/4/3 
f 61/2/3 17/2/3 59/2/3 
f 4/2/4 8/2/4 22/2/4 
f 22/2/4 8/2/4 23/2/4 
f 23/2/4 8/2/4 26/2/4 
f 23/2/4 26/2/4 66/2/4 
f 66/2/4 26/2/4 68/2/4 
f 65/2/4 66/2/4 75/2/4 
f 66/2/4 68/2/4 75/2/4 
f 75/2/4 68/2/4 77/2/4 
f 18/2/4 24/2/4 62/2/4 
f 62/2/4 24/2/4 67/2/4 
f 28/1/4 31/1/4 70/1/4 
f 70/1/4 31/1/4 71/1/4 
f 10/3/4 14/3/4 80/3/4 
f 14/4/4 16/4/4 80/4/4 
f 80/4/4 16/4/4 81/4/4 
f 10/3/4 80/3/4 52/3/4 
f 80/1/4 81/1/4 56/1/4 
f 52/3/4 80/3/4 56/3/4 
f 81/4/4 16/4/4 58/4/4 
f 56/1/4 81/1/4 58/1/4 
f 16/2/4 19/2/4 60/2/4 
f 58/4/4 16/4/4 60/4/4 
f 60/2/4 19/2/4 63/2/4 
f 10/3/5 51/3/5 11/3/5 
f 52/3/5 51/3/5 10/3/5 
f 17/2/5 64/2/5 21/2/5 
f 61/2/5 64/2/5 17/2/5 
f 2/1/5 48/1/5 3/1/5 
f 45/1/5 48/1/5 2/1/5 
f 82/1/5 72/1/5 38/1/5 
f 73/1/5 72/1/5 82/1/5 
f 37/1/5 82/1/5 38/1/5 
f 83/2/5 73/2/5 82/2/5 
f 83/1/5 82/1/5 37/1/5 
f 20/2/5 45/2/5 2/2/5 
f 40/2/5 83/2/5 37/2/5 
f 4/2/5 20/2/5 2/2/5 
f 22/2/5 20/2/5 4/2/5 
f 65/2/5 83/2/5 40/2/5 
f 75/2/5 73/2/5 83/2/5 
f 75/2/5 83/2/5 65/2/5 
f 47/2/5 39/2/5 46/2/5 
f 41/2/5 39/2/5 47/2/5 
f 50/1/5 43/1/5 27/1/5 
f 44/1/5 43/1/5 50/1/5 
f 28/1/5 68/1/5 26/1/5 
f 70/1/5 68/1/5 28/1/5 
f 9/3/6 53/3/6 12/3/6 
f 12/3/6 53/3/6 54/3/6 
f 18/2/6 62/2/6 19/2/6 
f 19/2/6 62/2/6 63/2/6 
f 23/2/6 66/2/6 24/2/6 
f 24/2/6 66/2/6 67/2/6 
f 6/1/6 49/1/6 84/1/6 
f 84/1/6 49/1/6 27/1/6 
f 42/1/6 74/1/6 43/1/6 
f 43/1/6 74/1/6 76/1/6 
f 6/1/6 84/1/6 7/1/6 
f 84/2/6 27/2/6 85/2/6 
f 7/1/6 84/1/6 85/1/6 
f 7/2/6 85/2/6 8/2/6 
f 85/2/6 27/2/6 26/2/6 
f 8/2/6 85/2/6 26/2/6 
f 43/2/6 76/2/6 68/2/6 
f 68/2/6 76/2/6 77/2/6 
f 25/1/6 34/1/6 29/1/6 
f 29/1/6 34/1/6 33/1/6 
f 32/1/6 69/1/6 35/1/6 
f 30/1/6 35/1/6 31/1/6 
f 35/1/6 69/1/6 71/1/6 
f 31/1/6 35/1/6 71/1/6 
# 166 faces

