# 3ds Max Wavefront OBJ Exporter v0.97b - (c)2007 guruware
# File Created: 29.05.2020 13:15:23

#
# object zombie2
#

# material
mtllib zombie2.mtl
usemtl palette

v  -0.4000 0.2000 0.2500
v  -0.4000 0.1000 0.1500
v  -0.4000 0.1000 0.2500
v  -0.4000 0.2000 0.1500
v  -0.4000 0.1000 -0.1500
v  -0.4000 0.2000 0.0500
v  -0.4000 0.3000 0.3500
v  -0.4000 0.2000 0.3500
v  -0.4000 0.3000 0.0500
v  -0.4000 0.3000 -0.1500
v  -0.3000 0.2000 0.3500
v  -0.3000 0.1000 0.2500
v  -0.3000 0.1000 0.3500
v  -0.3000 0.2000 0.2500
v  -0.2000 -0.6000 0.1500
v  -0.2000 -0.7000 -0.1500
v  -0.2000 -0.7000 0.1500
v  -0.2000 -0.6000 0.0500
v  -0.2000 -0.5000 0.0500
v  -0.2000 -0.5000 -0.0500
v  -0.2000 -0.5000 -0.1500
v  -0.2000 -0.4000 0.0500
v  -0.2000 -0.4000 -0.0500
v  -0.2000 -0.2000 0.0500
v  -0.2000 -0.2000 -0.1500
v  -0.2000 0.1000 0.0500
v  -0.2000 0.1000 -0.1500
v  -0.2000 0.3000 -0.1500
v  -0.2000 0.1000 -0.2500
v  -0.2000 0.3000 -0.2500
v  -0.2000 0.7000 0.0500
v  -0.2000 0.3000 0.0500
v  -0.2000 0.3000 -0.3500
v  -0.2000 0.7000 -0.3500
v  0.2000 0.3000 0.3500
v  0.2000 0.1000 0.1500
v  0.2000 0.1000 0.3500
v  0.2000 0.3000 0.1500
v  0.2000 0.1000 -0.0500
v  0.2000 0.1000 0.0500
v  0.2000 0.3000 0.0500
v  0.2000 0.3000 -0.0500
v  -0.2000 0.1000 0.3500
v  -0.2000 0.1000 0.1500
v  -0.2000 0.3000 0.3500
v  -0.2000 0.1000 -0.0500
v  -0.2000 0.3000 0.1500
v  -0.2000 0.3000 -0.0500
v  0.2000 -0.7000 0.1500
v  0.2000 -0.7000 -0.1500
v  0.2000 -0.6000 0.1500
v  0.2000 -0.6000 0.0500
v  0.2000 -0.5000 0.0500
v  0.2000 -0.5000 -0.1500
v  0.2000 -0.4000 -0.0500
v  0.2000 -0.4000 -0.1500
v  0.2000 -0.3000 0.0500
v  0.2000 -0.3000 -0.0500
v  0.2000 -0.2000 0.0500
v  0.2000 -0.2000 -0.1500
v  0.2000 0.1000 -0.1500
v  0.2000 0.1000 -0.2500
v  0.2000 0.3000 -0.1500
v  0.2000 0.3000 -0.2500
v  0.2000 0.7000 0.0500
v  0.2000 0.3000 -0.3500
v  0.2000 0.7000 -0.3500
v  0.3000 0.1000 0.3500
v  0.3000 0.1000 0.2500
v  0.3000 0.2000 0.3500
v  0.3000 0.2000 0.2500
v  0.4000 0.1000 0.2500
v  0.4000 0.1000 0.0500
v  0.4000 0.2000 0.2500
v  0.4000 0.2000 0.1500
v  0.4000 0.1000 -0.1500
v  0.4000 0.2000 0.0500
v  0.4000 0.3000 0.3500
v  0.4000 0.2000 0.3500
v  0.4000 0.3000 0.1500
v  0.4000 0.3000 -0.1500
v  -0.1000 -0.5000 0.0500
v  -0.1000 -0.4000 0.0500
v  0.0000 -0.5000 0.0500
v  0.0000 -0.3000 0.0500
v  0.0000 -0.5000 -0.1500
v  0.0000 -0.3000 -0.1500
v  0.1000 -0.4000 -0.1500
v  0.1000 -0.3000 -0.1500
v  0.3000 0.1000 0.1500
v  0.3000 0.1000 0.0500
v  -0.3000 0.3000 0.1500
v  -0.3000 0.3000 0.0500
# 93 vertices

vn -1.0000 0.0000 -0.0000
vn 1.0000 0.0000 -0.0000
vn 0.0000 0.0000 1.0000
vn 0.0000 0.0000 -1.0000
vn 0.0000 -1.0000 -0.0000
vn 0.0000 1.0000 -0.0000
# 6 vertex normals

vt 0.4551 0.5000 0.0000
vt 0.3691 0.5000 0.0000
vt 0.9941 0.5000 0.0000
vt 0.6426 0.5000 0.0000
# 4 texture coords

o zombie2
g zombie2
f 1/1/1 2/1/1 3/1/1 
f 4/2/1 5/2/1 2/2/1 
f 4/1/1 2/1/1 1/1/1 
f 6/2/1 5/2/1 4/2/1 
f 7/1/1 1/1/1 8/1/1 
f 7/1/1 4/1/1 1/1/1 
f 7/1/1 6/1/1 4/1/1 
f 9/2/1 5/2/1 6/2/1 
f 9/1/1 6/1/1 7/1/1 
f 10/2/1 5/2/1 9/2/1 
f 11/1/1 12/1/1 13/1/1 
f 14/1/1 12/1/1 11/1/1 
f 15/3/1 16/3/1 17/3/1 
f 18/3/1 16/3/1 15/3/1 
f 19/3/1 16/3/1 18/3/1 
f 20/3/1 16/3/1 19/3/1 
f 21/3/1 16/3/1 20/3/1 
f 22/1/1 20/1/1 19/1/1 
f 23/4/1 21/4/1 20/4/1 
f 23/1/1 20/1/1 22/1/1 
f 24/4/1 23/4/1 22/4/1 
f 25/4/1 21/4/1 23/4/1 
f 25/4/1 23/4/1 24/4/1 
f 26/2/1 25/2/1 24/2/1 
f 27/2/1 25/2/1 26/2/1 
f 28/2/1 29/2/1 27/2/1 
f 30/2/1 29/2/1 28/2/1 
f 31/1/1 28/1/1 32/1/1 
f 31/1/1 33/1/1 30/1/1 
f 31/1/1 30/1/1 28/1/1 
f 34/1/1 33/1/1 31/1/1 
f 35/1/1 36/1/1 37/1/1 
f 38/2/1 39/2/1 40/2/1 
f 38/1/1 36/1/1 35/1/1 
f 38/2/1 40/2/1 36/2/1 
f 41/2/1 39/2/1 38/2/1 
f 42/2/1 39/2/1 41/2/1 
f 43/1/2 44/1/2 45/1/2 
f 26/2/2 46/2/2 47/2/2 
f 45/1/2 44/1/2 47/1/2 
f 44/2/2 26/2/2 47/2/2 
f 47/2/2 46/2/2 32/2/2 
f 32/2/2 46/2/2 48/2/2 
f 49/3/2 50/3/2 51/3/2 
f 51/3/2 50/3/2 52/3/2 
f 52/3/2 50/3/2 53/3/2 
f 53/3/2 50/3/2 54/3/2 
f 53/1/2 54/1/2 55/1/2 
f 55/1/2 54/1/2 56/1/2 
f 53/1/2 55/1/2 57/1/2 
f 55/4/2 56/4/2 58/4/2 
f 57/1/2 55/1/2 58/1/2 
f 57/4/2 58/4/2 59/4/2 
f 58/4/2 56/4/2 60/4/2 
f 59/4/2 58/4/2 60/4/2 
f 59/2/2 60/2/2 40/2/2 
f 40/2/2 60/2/2 61/2/2 
f 61/2/2 62/2/2 63/2/2 
f 63/2/2 62/2/2 64/2/2 
f 41/1/2 63/1/2 65/1/2 
f 64/1/2 66/1/2 65/1/2 
f 63/1/2 64/1/2 65/1/2 
f 65/1/2 66/1/2 67/1/2 
f 68/1/2 69/1/2 70/1/2 
f 70/1/2 69/1/2 71/1/2 
f 72/1/2 73/1/2 74/1/2 
f 74/1/2 73/1/2 75/1/2 
f 73/2/2 76/2/2 77/2/2 
f 75/1/2 73/1/2 77/1/2 
f 74/1/2 75/1/2 78/1/2 
f 79/1/2 74/1/2 78/1/2 
f 75/2/2 77/2/2 80/2/2 
f 78/1/2 75/1/2 80/1/2 
f 77/2/2 76/2/2 81/2/2 
f 80/2/2 77/2/2 81/2/2 
f 11/1/3 7/1/3 8/1/3 
f 43/1/3 11/1/3 13/1/3 
f 45/1/3 7/1/3 11/1/3 
f 45/1/3 11/1/3 43/1/3 
f 68/1/3 35/1/3 37/1/3 
f 70/1/3 35/1/3 68/1/3 
f 79/1/3 35/1/3 70/1/3 
f 78/1/3 35/1/3 79/1/3 
f 12/1/3 1/1/3 3/1/3 
f 14/1/3 1/1/3 12/1/3 
f 72/1/3 71/1/3 69/1/3 
f 74/1/3 71/1/3 72/1/3 
f 49/3/3 15/3/3 17/3/3 
f 51/3/3 15/3/3 49/3/3 
f 82/3/3 19/3/3 18/3/3 
f 82/1/3 22/1/3 19/1/3 
f 83/4/3 24/4/3 22/4/3 
f 83/1/3 22/1/3 82/1/3 
f 84/3/3 82/3/3 18/3/3 
f 84/4/3 83/4/3 82/4/3 
f 85/4/3 24/4/3 83/4/3 
f 85/4/3 83/4/3 84/4/3 
f 52/3/3 84/3/3 18/3/3 
f 53/1/3 85/1/3 84/1/3 
f 53/3/3 84/3/3 52/3/3 
f 57/4/3 24/4/3 85/4/3 
f 57/1/3 85/1/3 53/1/3 
f 59/2/3 26/2/3 24/2/3 
f 59/4/3 24/4/3 57/4/3 
f 40/2/3 26/2/3 59/2/3 
f 41/1/3 31/1/3 32/1/3 
f 65/1/3 31/1/3 41/1/3 
f 39/2/3 48/2/3 46/2/3 
f 42/2/3 48/2/3 39/2/3 
f 5/2/4 10/2/4 27/2/4 
f 27/2/4 10/2/4 28/2/4 
f 21/4/4 25/4/4 86/4/4 
f 16/3/4 21/3/4 86/3/4 
f 86/4/4 25/4/4 87/4/4 
f 86/1/4 87/1/4 88/1/4 
f 87/4/4 25/4/4 89/4/4 
f 88/1/4 87/1/4 89/1/4 
f 16/3/4 86/3/4 50/3/4 
f 86/1/4 88/1/4 54/1/4 
f 50/3/4 86/3/4 54/3/4 
f 88/4/4 89/4/4 56/4/4 
f 54/1/4 88/1/4 56/1/4 
f 25/2/4 27/2/4 60/2/4 
f 56/4/4 89/4/4 60/4/4 
f 89/4/4 25/4/4 60/4/4 
f 60/2/4 27/2/4 61/2/4 
f 61/2/4 63/2/4 76/2/4 
f 76/2/4 63/2/4 81/2/4 
f 29/2/4 30/2/4 62/2/4 
f 62/2/4 30/2/4 64/2/4 
f 33/1/4 34/1/4 66/1/4 
f 66/1/4 34/1/4 67/1/4 
f 16/3/5 49/3/5 17/3/5 
f 50/3/5 49/3/5 16/3/5 
f 12/1/5 43/1/5 13/1/5 
f 69/1/5 68/1/5 37/1/5 
f 2/1/5 12/1/5 3/1/5 
f 44/1/5 43/1/5 12/1/5 
f 44/1/5 12/1/5 2/1/5 
f 36/1/5 72/1/5 69/1/5 
f 36/1/5 69/1/5 37/1/5 
f 90/1/5 72/1/5 36/1/5 
f 26/2/5 44/2/5 2/2/5 
f 40/2/5 90/2/5 36/2/5 
f 91/1/5 72/1/5 90/1/5 
f 91/2/5 90/2/5 40/2/5 
f 73/1/5 72/1/5 91/1/5 
f 5/2/5 26/2/5 2/2/5 
f 27/2/5 26/2/5 5/2/5 
f 61/2/5 91/2/5 40/2/5 
f 61/2/5 73/2/5 91/2/5 
f 76/2/5 73/2/5 61/2/5 
f 29/2/5 61/2/5 27/2/5 
f 62/2/5 61/2/5 29/2/5 
f 1/1/5 11/1/5 8/1/5 
f 14/1/5 11/1/5 1/1/5 
f 71/1/5 79/1/5 70/1/5 
f 74/1/5 79/1/5 71/1/5 
f 48/1/5 41/1/5 32/1/5 
f 42/1/5 41/1/5 48/1/5 
f 33/1/5 64/1/5 30/1/5 
f 66/1/5 64/1/5 33/1/5 
f 15/3/6 51/3/6 18/3/6 
f 18/3/6 51/3/6 52/3/6 
f 26/2/6 40/2/6 46/2/6 
f 46/2/6 40/2/6 39/2/6 
f 7/1/6 45/1/6 92/1/6 
f 92/1/6 45/1/6 47/1/6 
f 35/1/6 78/1/6 38/1/6 
f 38/1/6 78/1/6 80/1/6 
f 7/1/6 92/1/6 9/1/6 
f 92/2/6 47/2/6 93/2/6 
f 9/1/6 92/1/6 93/1/6 
f 93/2/6 47/2/6 32/2/6 
f 38/2/6 80/2/6 41/2/6 
f 93/2/6 32/2/6 10/2/6 
f 9/2/6 93/2/6 10/2/6 
f 10/2/6 32/2/6 28/2/6 
f 41/2/6 80/2/6 63/2/6 
f 63/2/6 80/2/6 81/2/6 
f 31/1/6 65/1/6 34/1/6 
f 34/1/6 65/1/6 67/1/6 
# 182 faces

