# 3ds Max Wavefront OBJ Exporter v0.97b - (c)2007 guruware
# File Created: 29.05.2020 13:06:16

#
# object skeleton2
#

# material
mtllib skeleton2.mtl
usemtl palette

v  -0.2500 0.1500 0.2500
v  -0.2500 0.0500 0.1500
v  -0.2500 0.0500 0.2500
v  -0.2500 0.1500 0.1500
v  -0.2500 0.2500 0.2500
v  -0.2500 0.1500 -0.2500
v  -0.2500 0.2500 0.1500
v  -0.2500 0.2500 -0.2500
v  -0.2500 0.3500 0.2500
v  -0.2500 0.3500 0.1500
v  -0.2500 0.6500 0.3500
v  -0.2500 0.3500 0.3500
v  -0.2500 0.6500 0.2500
v  -0.2500 0.7500 0.2500
v  -0.2500 0.7500 0.1500
v  -0.1500 -0.6500 -0.0500
v  -0.1500 -0.7500 -0.2500
v  -0.1500 -0.7500 -0.0500
v  -0.1500 -0.6500 -0.1500
v  -0.1500 -0.2500 -0.1500
v  -0.1500 -0.2500 -0.2500
v  -0.1500 0.1500 -0.1500
v  -0.1500 0.0500 -0.2500
v  -0.1500 0.0500 -0.1500
v  -0.1500 0.1500 -0.2500
v  -0.1500 0.3500 -0.0500
v  -0.1500 0.2500 -0.2500
v  -0.1500 0.2500 -0.0500
v  -0.1500 0.3500 -0.2500
v  -0.1500 0.4500 0.0500
v  -0.1500 0.3500 -0.3500
v  -0.1500 0.3500 0.0500
v  -0.1500 0.4500 -0.0500
v  -0.1500 0.5500 -0.0500
v  -0.1500 0.6500 0.0500
v  -0.1500 0.5500 0.0500
v  -0.1500 0.6500 -0.3500
v  -0.0500 -0.2500 -0.0500
v  -0.0500 -0.3500 -0.1500
v  -0.0500 -0.3500 -0.0500
v  -0.0500 -0.2500 -0.1500
v  -0.0500 0.0500 -0.1500
v  -0.0500 -0.2500 -0.2500
v  -0.0500 0.0500 -0.2500
v  -0.0500 0.1500 -0.0500
v  -0.0500 0.0500 -0.0500
v  -0.0500 0.1500 -0.1500
v  -0.0500 0.3500 0.0500
v  -0.0500 0.2500 -0.0500
v  -0.0500 0.2500 0.0500
v  -0.0500 0.3500 -0.0500
v  -0.0500 0.3500 -0.2500
v  -0.0500 0.2500 -0.3500
v  -0.0500 0.2500 -0.2500
v  -0.0500 0.3500 -0.3500
v  -0.0500 0.5500 0.0500
v  -0.0500 0.4500 -0.0500
v  -0.0500 0.4500 0.0500
v  -0.0500 0.5500 -0.0500
v  0.1500 -0.6500 -0.0500
v  0.1500 -0.7500 -0.2500
v  0.1500 -0.7500 -0.0500
v  0.1500 -0.6500 -0.1500
v  0.1500 -0.4500 -0.1500
v  0.1500 -0.4500 -0.2500
v  -0.1500 0.0500 0.2500
v  -0.1500 0.0500 0.1500
v  -0.1500 0.1500 0.2500
v  -0.1500 0.1500 0.1500
v  -0.1500 0.2500 0.2500
v  -0.1500 0.1500 -0.0500
v  -0.1500 0.2500 0.1500
v  -0.1500 0.3500 0.2500
v  -0.1500 0.3500 0.1500
v  -0.1500 0.3500 0.3500
v  -0.1500 0.6500 0.3500
v  -0.1500 0.6500 0.2500
v  -0.1500 0.7500 0.2500
v  -0.1500 0.7500 0.1500
v  -0.0500 -0.7500 -0.0500
v  -0.0500 -0.7500 -0.2500
v  -0.0500 -0.6500 -0.0500
v  -0.0500 -0.6500 -0.1500
v  -0.0500 -0.4500 -0.1500
v  -0.0500 -0.4500 -0.2500
v  0.1500 -0.3500 -0.0500
v  0.1500 -0.3500 -0.1500
v  0.1500 -0.2500 -0.0500
v  0.1500 -0.2500 -0.1500
v  0.1500 -0.2500 -0.2500
v  0.1500 -0.1500 -0.1500
v  0.1500 -0.1500 -0.2500
v  0.1500 -0.0500 -0.1500
v  0.1500 -0.0500 -0.2500
v  0.1500 0.0500 -0.1500
v  0.1500 0.0500 -0.2500
v  0.1500 0.0500 -0.0500
v  0.1500 0.1500 -0.0500
v  0.1500 0.1500 -0.1500
v  0.1500 0.2500 0.0500
v  0.1500 0.2500 -0.0500
v  0.1500 0.3500 0.0500
v  0.1500 0.3500 -0.0500
v  0.1500 0.4500 0.0500
v  0.1500 0.4500 -0.0500
v  0.1500 0.5500 0.0500
v  0.1500 0.5500 -0.0500
v  0.1500 0.5500 -0.2500
v  0.1500 0.5500 -0.3500
v  0.1500 0.6500 -0.2500
v  0.1500 0.6500 -0.3500
v  0.2500 -0.7500 -0.0500
v  0.2500 -0.7500 -0.2500
v  0.2500 -0.6500 -0.0500
v  0.2500 -0.6500 -0.1500
v  0.2500 -0.2500 -0.1500
v  0.2500 -0.2500 -0.2500
v  0.2500 -0.1500 -0.1500
v  0.2500 -0.1500 -0.2500
v  0.2500 -0.0500 -0.1500
v  0.2500 -0.0500 -0.2500
v  0.2500 0.0500 -0.1500
v  0.2500 0.0500 -0.2500
v  0.2500 0.1500 -0.1500
v  0.2500 0.2500 -0.2500
v  0.2500 0.1500 -0.0500
v  0.2500 0.3500 -0.0500
v  0.2500 0.2500 -0.3500
v  0.2500 0.3500 0.0500
v  0.2500 0.4500 0.0500
v  0.2500 0.4500 -0.0500
v  0.2500 0.5500 -0.0500
v  0.2500 0.5500 -0.2500
v  0.2500 0.5500 -0.3500
v  0.2500 0.5500 0.0500
v  0.2500 0.6500 0.0500
v  0.2500 0.6500 -0.2500
# 137 vertices

vn -1.0000 0.0000 -0.0000
vn 1.0000 0.0000 -0.0000
vn 0.0000 0.0000 1.0000
vn 0.0000 0.0000 -1.0000
vn 0.0000 -1.0000 -0.0000
vn 0.0000 1.0000 -0.0000
# 6 vertex normals

vt 0.9824 0.5000 0.0000
vt 0.9629 0.5000 0.0000
vt 0.9746 0.5000 0.0000
# 3 texture coords

o skeleton2
g skeleton2
f 1/1/1 2/1/1 3/1/1 
f 4/1/1 2/1/1 1/1/1 
f 5/2/1 4/2/1 1/2/1 
f 5/2/1 6/2/1 4/2/1 
f 7/2/1 6/2/1 5/2/1 
f 8/2/1 6/2/1 7/2/1 
f 9/1/1 7/1/1 5/1/1 
f 10/1/1 7/1/1 9/1/1 
f 11/3/1 9/3/1 12/3/1 
f 11/3/1 10/3/1 9/3/1 
f 13/3/1 10/3/1 11/3/1 
f 14/3/1 10/3/1 13/3/1 
f 15/3/1 10/3/1 14/3/1 
f 16/2/1 17/2/1 18/2/1 
f 19/2/1 17/2/1 16/2/1 
f 20/2/1 17/2/1 19/2/1 
f 21/2/1 17/2/1 20/2/1 
f 22/2/1 23/2/1 24/2/1 
f 25/2/1 23/2/1 22/2/1 
f 26/2/1 27/2/1 28/2/1 
f 29/2/1 27/2/1 26/2/1 
f 30/2/1 29/2/1 26/2/1 
f 30/2/1 31/2/1 29/2/1 
f 30/2/1 26/2/1 32/2/1 
f 33/2/1 31/2/1 30/2/1 
f 34/2/1 31/2/1 33/2/1 
f 35/2/1 34/2/1 36/2/1 
f 37/2/1 31/2/1 34/2/1 
f 37/2/1 34/2/1 35/2/1 
f 38/2/1 39/2/1 40/2/1 
f 41/2/1 39/2/1 38/2/1 
f 42/2/1 43/2/1 41/2/1 
f 44/2/1 43/2/1 42/2/1 
f 45/2/1 42/2/1 46/2/1 
f 47/2/1 42/2/1 45/2/1 
f 48/2/1 49/2/1 50/2/1 
f 51/2/1 49/2/1 48/2/1 
f 52/2/1 53/2/1 54/2/1 
f 55/2/1 53/2/1 52/2/1 
f 56/2/1 57/2/1 58/2/1 
f 59/2/1 57/2/1 56/2/1 
f 60/2/1 61/2/1 62/2/1 
f 63/2/1 61/2/1 60/2/1 
f 64/2/1 61/2/1 63/2/1 
f 65/2/1 61/2/1 64/2/1 
f 66/1/2 67/1/2 68/1/2 
f 68/1/2 67/1/2 69/1/2 
f 68/2/2 69/2/2 70/2/2 
f 69/2/2 71/2/2 70/2/2 
f 70/2/2 71/2/2 72/2/2 
f 72/2/2 71/2/2 28/2/2 
f 70/1/2 72/1/2 73/1/2 
f 73/1/2 72/1/2 74/1/2 
f 75/3/2 73/3/2 76/3/2 
f 73/3/2 74/3/2 76/3/2 
f 76/3/2 74/3/2 77/3/2 
f 77/3/2 74/3/2 78/3/2 
f 78/3/2 74/3/2 79/3/2 
f 80/2/2 81/2/2 82/2/2 
f 82/2/2 81/2/2 83/2/2 
f 83/2/2 81/2/2 84/2/2 
f 84/2/2 81/2/2 85/2/2 
f 86/2/2 87/2/2 88/2/2 
f 88/2/2 87/2/2 89/2/2 
f 89/2/2 90/2/2 91/2/2 
f 91/2/2 90/2/2 92/2/2 
f 93/2/2 94/2/2 95/2/2 
f 95/2/2 94/2/2 96/2/2 
f 97/2/2 95/2/2 98/2/2 
f 98/2/2 95/2/2 99/2/2 
f 100/2/2 101/2/2 102/2/2 
f 102/2/2 101/2/2 103/2/2 
f 104/2/2 105/2/2 106/2/2 
f 106/2/2 105/2/2 107/2/2 
f 108/2/2 109/2/2 110/2/2 
f 110/2/2 109/2/2 111/2/2 
f 112/2/2 113/2/2 114/2/2 
f 114/2/2 113/2/2 115/2/2 
f 115/2/2 113/2/2 116/2/2 
f 116/2/2 113/2/2 117/2/2 
f 118/2/2 119/2/2 120/2/2 
f 120/2/2 119/2/2 121/2/2 
f 122/2/2 123/2/2 124/2/2 
f 124/2/2 123/2/2 125/2/2 
f 126/2/2 124/2/2 125/2/2 
f 126/2/2 125/2/2 127/2/2 
f 125/2/2 128/2/2 127/2/2 
f 129/2/2 127/2/2 130/2/2 
f 127/2/2 128/2/2 131/2/2 
f 130/2/2 127/2/2 131/2/2 
f 131/2/2 128/2/2 132/2/2 
f 132/2/2 128/2/2 133/2/2 
f 133/2/2 128/2/2 134/2/2 
f 135/2/2 132/2/2 136/2/2 
f 132/2/2 133/2/2 136/2/2 
f 136/2/2 133/2/2 137/2/2 
f 75/3/3 11/3/3 12/3/3 
f 76/3/3 11/3/3 75/3/3 
f 66/1/3 1/1/3 3/1/3 
f 68/2/3 5/2/3 1/2/3 
f 68/1/3 1/1/3 66/1/3 
f 70/1/3 9/1/3 5/1/3 
f 70/2/3 5/2/3 68/2/3 
f 73/1/3 9/1/3 70/1/3 
f 77/3/3 14/3/3 13/3/3 
f 78/3/3 14/3/3 77/3/3 
f 48/2/3 30/2/3 32/2/3 
f 58/2/3 30/2/3 48/2/3 
f 56/2/3 35/2/3 36/2/3 
f 100/2/3 58/2/3 48/2/3 
f 100/2/3 56/2/3 58/2/3 
f 100/2/3 48/2/3 50/2/3 
f 102/2/3 56/2/3 100/2/3 
f 104/2/3 56/2/3 102/2/3 
f 106/2/3 35/2/3 56/2/3 
f 106/2/3 56/2/3 104/2/3 
f 129/2/3 104/2/3 102/2/3 
f 130/2/3 104/2/3 129/2/3 
f 135/2/3 35/2/3 106/2/3 
f 136/2/3 35/2/3 135/2/3 
f 80/2/3 16/2/3 18/2/3 
f 82/2/3 16/2/3 80/2/3 
f 45/2/3 28/2/3 71/2/3 
f 45/2/3 26/2/3 28/2/3 
f 49/2/3 26/2/3 45/2/3 
f 51/2/3 26/2/3 49/2/3 
f 57/2/3 34/2/3 33/2/3 
f 59/2/3 34/2/3 57/2/3 
f 86/2/3 38/2/3 40/2/3 
f 88/2/3 38/2/3 86/2/3 
f 97/2/3 45/2/3 46/2/3 
f 97/2/3 49/2/3 45/2/3 
f 98/2/3 49/2/3 97/2/3 
f 101/2/3 49/2/3 98/2/3 
f 112/2/3 60/2/3 62/2/3 
f 114/2/3 60/2/3 112/2/3 
f 126/2/3 103/2/3 101/2/3 
f 126/2/3 101/2/3 98/2/3 
f 127/2/3 103/2/3 126/2/3 
f 131/2/3 107/2/3 105/2/3 
f 132/2/3 107/2/3 131/2/3 
f 83/2/3 20/2/3 19/2/3 
f 84/2/3 20/2/3 83/2/3 
f 39/2/3 20/2/3 84/2/3 
f 41/2/3 20/2/3 39/2/3 
f 42/2/3 22/2/3 24/2/3 
f 47/2/3 22/2/3 42/2/3 
f 64/2/3 39/2/3 84/2/3 
f 87/2/3 39/2/3 64/2/3 
f 89/2/3 42/2/3 41/2/3 
f 91/2/3 42/2/3 89/2/3 
f 93/2/3 42/2/3 91/2/3 
f 95/2/3 42/2/3 93/2/3 
f 115/2/3 87/2/3 64/2/3 
f 115/2/3 64/2/3 63/2/3 
f 115/2/3 89/2/3 87/2/3 
f 116/2/3 89/2/3 115/2/3 
f 118/2/3 93/2/3 91/2/3 
f 120/2/3 93/2/3 118/2/3 
f 122/2/3 99/2/3 95/2/3 
f 124/2/3 99/2/3 122/2/3 
f 2/1/4 4/1/4 67/1/4 
f 67/1/4 4/1/4 69/1/4 
f 7/1/4 10/1/4 72/1/4 
f 10/3/4 15/3/4 74/3/4 
f 72/1/4 10/1/4 74/1/4 
f 74/3/4 15/3/4 79/3/4 
f 6/2/4 8/2/4 25/2/4 
f 25/2/4 8/2/4 27/2/4 
f 17/2/4 21/2/4 81/2/4 
f 81/2/4 21/2/4 85/2/4 
f 85/2/4 21/2/4 43/2/4 
f 27/2/4 29/2/4 44/2/4 
f 23/2/4 25/2/4 44/2/4 
f 25/2/4 27/2/4 44/2/4 
f 44/2/4 29/2/4 54/2/4 
f 54/2/4 29/2/4 52/2/4 
f 85/2/4 43/2/4 65/2/4 
f 44/2/4 54/2/4 65/2/4 
f 43/2/4 44/2/4 65/2/4 
f 65/2/4 54/2/4 90/2/4 
f 90/2/4 54/2/4 92/2/4 
f 92/2/4 54/2/4 94/2/4 
f 94/2/4 54/2/4 96/2/4 
f 61/2/4 65/2/4 113/2/4 
f 65/2/4 90/2/4 113/2/4 
f 113/2/4 90/2/4 117/2/4 
f 92/2/4 94/2/4 119/2/4 
f 119/2/4 94/2/4 121/2/4 
f 96/2/4 54/2/4 123/2/4 
f 123/2/4 54/2/4 125/2/4 
f 108/2/4 110/2/4 133/2/4 
f 133/2/4 110/2/4 137/2/4 
f 31/2/4 37/2/4 55/2/4 
f 55/2/4 37/2/4 109/2/4 
f 53/2/4 55/2/4 109/2/4 
f 109/2/4 37/2/4 111/2/4 
f 53/2/4 109/2/4 128/2/4 
f 128/2/4 109/2/4 134/2/4 
f 17/2/5 80/2/5 18/2/5 
f 81/2/5 80/2/5 17/2/5 
f 61/2/5 112/2/5 62/2/5 
f 113/2/5 112/2/5 61/2/5 
f 85/2/5 64/2/5 84/2/5 
f 65/2/5 64/2/5 85/2/5 
f 39/2/5 86/2/5 40/2/5 
f 87/2/5 86/2/5 39/2/5 
f 92/2/5 118/2/5 91/2/5 
f 119/2/5 118/2/5 92/2/5 
f 2/1/5 66/1/5 3/1/5 
f 67/1/5 66/1/5 2/1/5 
f 42/2/5 97/2/5 46/2/5 
f 95/2/5 97/2/5 42/2/5 
f 23/2/5 42/2/5 24/2/5 
f 44/2/5 42/2/5 23/2/5 
f 96/2/5 122/2/5 95/2/5 
f 123/2/5 122/2/5 96/2/5 
f 71/2/5 69/2/5 4/2/5 
f 22/2/5 71/2/5 4/2/5 
f 22/2/5 45/2/5 71/2/5 
f 47/2/5 45/2/5 22/2/5 
f 99/2/5 126/2/5 98/2/5 
f 124/2/5 126/2/5 99/2/5 
f 6/2/5 22/2/5 4/2/5 
f 25/2/5 22/2/5 6/2/5 
f 49/2/5 100/2/5 50/2/5 
f 101/2/5 100/2/5 49/2/5 
f 53/2/5 125/2/5 54/2/5 
f 128/2/5 125/2/5 53/2/5 
f 9/3/5 75/3/5 12/3/5 
f 73/3/5 75/3/5 9/3/5 
f 26/2/5 48/2/5 32/2/5 
f 51/2/5 48/2/5 26/2/5 
f 103/2/5 129/2/5 102/2/5 
f 127/2/5 129/2/5 103/2/5 
f 31/2/5 52/2/5 29/2/5 
f 55/2/5 52/2/5 31/2/5 
f 34/2/5 56/2/5 36/2/5 
f 59/2/5 56/2/5 34/2/5 
f 107/2/5 135/2/5 106/2/5 
f 132/2/5 135/2/5 107/2/5 
f 16/2/6 82/2/6 19/2/6 
f 19/2/6 82/2/6 83/2/6 
f 60/2/6 114/2/6 63/2/6 
f 63/2/6 114/2/6 115/2/6 
f 38/2/6 88/2/6 41/2/6 
f 41/2/6 88/2/6 89/2/6 
f 20/2/6 41/2/6 21/2/6 
f 21/2/6 41/2/6 43/2/6 
f 89/2/6 116/2/6 90/2/6 
f 90/2/6 116/2/6 117/2/6 
f 93/2/6 120/2/6 94/2/6 
f 94/2/6 120/2/6 121/2/6 
f 7/2/6 72/2/6 28/2/6 
f 7/2/6 28/2/6 8/2/6 
f 8/2/6 28/2/6 27/2/6 
f 30/2/6 58/2/6 33/2/6 
f 33/2/6 58/2/6 57/2/6 
f 104/2/6 130/2/6 105/2/6 
f 105/2/6 130/2/6 131/2/6 
f 108/2/6 133/2/6 109/2/6 
f 109/2/6 133/2/6 134/2/6 
f 11/3/6 76/3/6 13/3/6 
f 13/3/6 76/3/6 77/3/6 
f 35/2/6 136/2/6 110/2/6 
f 110/2/6 136/2/6 137/2/6 
f 35/2/6 110/2/6 37/2/6 
f 37/2/6 110/2/6 111/2/6 
f 14/3/6 78/3/6 15/3/6 
f 15/3/6 78/3/6 79/3/6 
# 270 faces

