# 3ds Max Wavefront OBJ Exporter v0.97b - (c)2007 guruware
# File Created: 29.05.2020 12:57:08

#
# object bigzombie
#

# material
mtllib bigzombie.mtl
usemtl palette

v  -0.5500 0.3500 0.1500
v  -0.5500 0.1500 0.0500
v  -0.5500 0.1500 0.3500
v  -0.5500 0.3500 0.0500
v  -0.5500 0.1500 -0.2500
v  -0.5500 0.4500 0.3500
v  -0.5500 0.4500 0.1500
v  -0.5500 0.4500 -0.2500
v  -0.2500 -0.7500 0.1500
v  -0.2500 -0.8500 -0.2500
v  -0.2500 -0.8500 0.1500
v  -0.2500 -0.7500 0.0500
v  -0.2500 -0.6500 0.0500
v  -0.2500 -0.6500 -0.0500
v  -0.2500 -0.5500 -0.0500
v  -0.2500 -0.5500 -0.2500
v  -0.2500 -0.2500 0.0500
v  -0.2500 -0.2500 -0.0500
v  -0.2500 -0.1500 -0.0500
v  -0.2500 -0.1500 -0.1500
v  -0.2500 -0.1500 -0.2500
v  -0.2500 -0.0500 0.0500
v  -0.2500 -0.0500 -0.1500
v  -0.2500 0.1500 0.0500
v  -0.2500 0.1500 -0.2500
v  -0.2500 0.4500 -0.2500
v  -0.2500 0.3500 -0.3500
v  -0.2500 0.3500 -0.2500
v  -0.2500 0.7500 -0.0500
v  -0.2500 0.4500 0.1500
v  -0.2500 0.7500 -0.2500
v  -0.2500 0.8500 0.1500
v  -0.2500 0.8500 -0.0500
v  -0.2500 0.8500 -0.2500
v  -0.2500 0.8500 -0.3500
v  -0.1500 0.8500 -0.0500
v  -0.1500 0.7500 -0.2500
v  -0.1500 0.7500 -0.0500
v  -0.1500 0.8500 -0.2500
v  0.0500 -0.7500 0.1500
v  0.0500 -0.8500 -0.2500
v  0.0500 -0.8500 0.1500
v  0.0500 -0.7500 0.0500
v  0.0500 -0.6500 0.0500
v  0.0500 -0.6500 -0.2500
v  0.0500 -0.3500 0.0500
v  0.0500 -0.3500 -0.2500
v  0.2500 0.2500 0.2500
v  0.2500 0.1500 0.1500
v  0.2500 0.1500 0.2500
v  0.2500 0.3500 0.1500
v  0.2500 0.1500 0.0500
v  0.2500 0.2500 0.3500
v  0.2500 0.3500 0.0500
v  0.2500 0.4500 0.3500
v  0.2500 0.4500 0.1500
v  0.3500 0.2500 0.3500
v  0.3500 0.1500 0.2500
v  0.3500 0.1500 0.3500
v  0.3500 0.2500 0.2500
v  -0.3500 0.1500 0.3500
v  -0.3500 0.1500 0.2500
v  -0.3500 0.2500 0.3500
v  -0.3500 0.2500 0.2500
v  -0.2500 0.1500 0.2500
v  -0.2500 0.2500 0.2500
v  -0.2500 0.2500 0.1500
v  -0.2500 0.2500 0.0500
v  -0.2500 0.2500 0.3500
v  -0.2500 0.3500 0.1500
v  -0.2500 0.3500 0.0500
v  -0.2500 0.4500 0.3500
v  -0.0500 -0.8500 0.1500
v  -0.0500 -0.8500 -0.2500
v  -0.0500 -0.7500 0.1500
v  -0.0500 -0.7500 0.0500
v  -0.0500 -0.6500 0.0500
v  -0.0500 -0.6500 -0.2500
v  -0.0500 -0.3500 0.0500
v  -0.0500 -0.3500 -0.2500
v  0.1500 0.4500 -0.2500
v  0.1500 0.4500 -0.3500
v  0.1500 0.5500 -0.2500
v  0.1500 0.5500 -0.3500
v  0.1500 0.6500 0.1500
v  0.1500 0.6500 0.0500
v  0.1500 0.8500 0.1500
v  0.1500 0.8500 0.0500
v  0.2500 -0.8500 0.1500
v  0.2500 -0.8500 -0.2500
v  0.2500 -0.7500 0.1500
v  0.2500 -0.7500 0.0500
v  0.2500 -0.6500 -0.0500
v  0.2500 -0.6500 -0.2500
v  0.2500 -0.5500 0.0500
v  0.2500 -0.5500 -0.0500
v  0.2500 -0.1500 0.0500
v  0.2500 -0.1500 -0.2500
v  0.2500 -0.0500 -0.1500
v  0.2500 -0.0500 -0.2500
v  0.2500 0.0500 -0.1500
v  0.2500 0.0500 -0.2500
v  0.2500 0.1500 -0.0500
v  0.2500 0.1500 -0.2500
v  0.2500 0.3500 -0.2500
v  0.2500 0.3500 -0.3500
v  0.2500 0.4500 -0.2500
v  0.2500 0.4500 -0.3500
v  0.2500 0.5500 -0.2500
v  0.2500 0.6500 0.1500
v  0.2500 0.5500 -0.3500
v  0.2500 0.6500 0.0500
v  0.2500 0.8500 0.0500
v  0.2500 0.8500 -0.3500
v  0.5500 0.1500 0.3500
v  0.5500 0.1500 0.1500
v  0.5500 0.4500 0.3500
v  0.5500 0.1500 -0.2500
v  0.5500 0.4500 0.1500
v  0.5500 0.4500 -0.2500
v  -0.1500 -0.2500 0.0500
v  -0.1500 -0.1500 0.0500
v  -0.0500 -0.1500 0.0500
v  -0.0500 -0.0500 0.0500
v  0.1500 -0.6500 0.0500
v  0.1500 -0.5500 0.0500
v  -0.1500 -0.6500 -0.2500
v  -0.1500 -0.5500 -0.2500
v  -0.0500 0.0500 -0.2500
v  -0.0500 0.1500 -0.2500
v  0.0500 -0.0500 -0.2500
v  0.0500 0.0500 -0.2500
v  0.1500 0.0500 -0.2500
v  0.1500 0.1500 -0.2500
v  -0.4500 0.1500 0.1500
v  -0.3500 0.1500 0.1500
v  -0.4500 0.1500 0.0500
v  -0.3500 0.1500 0.0500
v  0.3500 0.1500 0.0500
v  0.3500 0.1500 -0.0500
v  0.3500 0.4500 0.1500
v  0.4500 0.4500 0.1500
v  0.3500 0.4500 0.0500
v  0.4500 0.4500 0.0500
# 144 vertices

vn -1.0000 0.0000 -0.0000
vn 1.0000 0.0000 -0.0000
vn 0.0000 0.0000 1.0000
vn 0.0000 0.0000 -1.0000
vn 0.0000 -1.0000 -0.0000
vn 0.0000 1.0000 -0.0000
# 6 vertex normals

vt 0.4551 0.5000 0.0000
vt 0.5605 0.5000 0.0000
vt 0.5371 0.5000 0.0000
# 3 texture coords

o bigzombie
g bigzombie
f 1/1/1 2/1/1 3/1/1 
f 4/2/1 5/2/1 2/2/1 
f 4/1/1 2/1/1 1/1/1 
f 6/1/1 1/1/1 3/1/1 
f 7/2/1 4/2/1 1/2/1 
f 7/1/1 1/1/1 6/1/1 
f 8/2/1 5/2/1 4/2/1 
f 8/2/1 4/2/1 7/2/1 
f 9/1/1 10/1/1 11/1/1 
f 12/1/1 10/1/1 9/1/1 
f 13/1/1 10/1/1 12/1/1 
f 14/1/1 10/1/1 13/1/1 
f 15/3/1 14/3/1 13/3/1 
f 15/1/1 10/1/1 14/1/1 
f 16/1/1 10/1/1 15/1/1 
f 17/3/1 15/3/1 13/3/1 
f 17/3/1 16/3/1 15/3/1 
f 18/3/1 16/3/1 17/3/1 
f 19/1/1 18/1/1 17/1/1 
f 19/3/1 16/3/1 18/3/1 
f 20/3/1 16/3/1 19/3/1 
f 21/3/1 16/3/1 20/3/1 
f 22/1/1 19/1/1 17/1/1 
f 22/1/1 20/1/1 19/1/1 
f 23/2/1 21/2/1 20/2/1 
f 23/1/1 20/1/1 22/1/1 
f 24/2/1 23/2/1 22/2/1 
f 25/2/1 21/2/1 23/2/1 
f 25/2/1 23/2/1 24/2/1 
f 26/1/1 27/1/1 28/1/1 
f 29/1/1 26/1/1 30/1/1 
f 31/1/1 27/1/1 26/1/1 
f 31/1/1 26/1/1 29/1/1 
f 32/1/1 29/1/1 30/1/1 
f 33/1/1 29/1/1 32/1/1 
f 34/1/1 27/1/1 31/1/1 
f 35/1/1 27/1/1 34/1/1 
f 36/1/1 37/1/1 38/1/1 
f 39/1/1 37/1/1 36/1/1 
f 40/1/1 41/1/1 42/1/1 
f 43/1/1 41/1/1 40/1/1 
f 44/1/1 41/1/1 43/1/1 
f 45/1/1 41/1/1 44/1/1 
f 46/3/1 45/3/1 44/3/1 
f 47/3/1 45/3/1 46/3/1 
f 48/1/1 49/1/1 50/1/1 
f 51/2/1 52/2/1 49/2/1 
f 51/1/1 48/1/1 53/1/1 
f 51/1/1 49/1/1 48/1/1 
f 54/2/1 52/2/1 51/2/1 
f 55/1/1 51/1/1 53/1/1 
f 56/1/1 51/1/1 55/1/1 
f 57/1/1 58/1/1 59/1/1 
f 60/1/1 58/1/1 57/1/1 
f 61/1/2 62/1/2 63/1/2 
f 63/1/2 62/1/2 64/1/2 
f 65/1/2 24/1/2 66/1/2 
f 66/1/2 24/1/2 67/1/2 
f 67/1/2 24/1/2 68/1/2 
f 69/1/2 66/1/2 70/1/2 
f 66/1/2 67/1/2 70/1/2 
f 67/2/2 68/2/2 70/2/2 
f 70/2/2 68/2/2 71/2/2 
f 69/1/2 70/1/2 72/1/2 
f 72/1/2 70/1/2 30/1/2 
f 73/1/2 74/1/2 75/1/2 
f 75/1/2 74/1/2 76/1/2 
f 76/1/2 74/1/2 77/1/2 
f 77/1/2 74/1/2 78/1/2 
f 77/3/2 78/3/2 79/3/2 
f 79/3/2 78/3/2 80/3/2 
f 81/1/2 82/1/2 83/1/2 
f 83/1/2 82/1/2 84/1/2 
f 85/1/2 86/1/2 87/1/2 
f 87/1/2 86/1/2 88/1/2 
f 89/1/2 90/1/2 91/1/2 
f 91/1/2 90/1/2 92/1/2 
f 92/1/2 90/1/2 93/1/2 
f 93/1/2 90/1/2 94/1/2 
f 92/1/2 93/1/2 95/1/2 
f 93/3/2 94/3/2 96/3/2 
f 95/1/2 93/1/2 96/1/2 
f 95/3/2 96/3/2 97/3/2 
f 96/3/2 94/3/2 98/3/2 
f 97/3/2 96/3/2 98/3/2 
f 97/2/2 98/2/2 99/2/2 
f 99/2/2 98/2/2 100/2/2 
f 97/2/2 99/2/2 101/2/2 
f 99/1/2 100/1/2 101/1/2 
f 101/1/2 100/1/2 102/1/2 
f 97/2/2 101/2/2 52/2/2 
f 101/2/2 102/2/2 52/2/2 
f 52/2/2 102/2/2 103/2/2 
f 103/2/2 102/2/2 104/2/2 
f 105/1/2 106/1/2 107/1/2 
f 107/1/2 106/1/2 108/1/2 
f 56/1/2 107/1/2 109/1/2 
f 56/1/2 109/1/2 110/1/2 
f 109/1/2 111/1/2 110/1/2 
f 110/1/2 111/1/2 112/1/2 
f 112/1/2 111/1/2 113/1/2 
f 113/1/2 111/1/2 114/1/2 
f 115/1/2 116/1/2 117/1/2 
f 116/2/2 118/2/2 119/2/2 
f 117/1/2 116/1/2 119/1/2 
f 119/2/2 118/2/2 120/2/2 
f 61/1/3 6/1/3 3/1/3 
f 63/1/3 6/1/3 61/1/3 
f 69/1/3 6/1/3 63/1/3 
f 72/1/3 6/1/3 69/1/3 
f 57/1/3 55/1/3 53/1/3 
f 115/1/3 57/1/3 59/1/3 
f 117/1/3 55/1/3 57/1/3 
f 117/1/3 57/1/3 115/1/3 
f 65/1/3 64/1/3 62/1/3 
f 66/1/3 64/1/3 65/1/3 
f 58/1/3 48/1/3 50/1/3 
f 60/1/3 48/1/3 58/1/3 
f 73/1/3 9/1/3 11/1/3 
f 75/1/3 9/1/3 73/1/3 
f 85/1/3 32/1/3 30/1/3 
f 85/1/3 30/1/3 70/1/3 
f 87/1/3 32/1/3 85/1/3 
f 89/1/3 40/1/3 42/1/3 
f 91/1/3 40/1/3 89/1/3 
f 51/1/3 85/1/3 70/1/3 
f 56/1/3 85/1/3 51/1/3 
f 110/1/3 85/1/3 56/1/3 
f 121/3/3 17/3/3 13/3/3 
f 121/1/3 22/1/3 17/1/3 
f 122/1/3 22/1/3 121/1/3 
f 76/1/3 13/1/3 12/1/3 
f 77/3/3 121/3/3 13/3/3 
f 77/1/3 13/1/3 76/1/3 
f 77/3/3 122/3/3 121/3/3 
f 79/3/3 122/3/3 77/3/3 
f 123/1/3 22/1/3 122/1/3 
f 123/3/3 122/3/3 79/3/3 
f 124/2/3 71/2/3 68/2/3 
f 124/1/3 22/1/3 123/1/3 
f 124/2/3 68/2/3 24/2/3 
f 124/2/3 24/2/3 22/2/3 
f 46/3/3 123/3/3 79/3/3 
f 125/1/3 44/1/3 43/1/3 
f 125/3/3 46/3/3 44/3/3 
f 126/3/3 46/3/3 125/3/3 
f 92/1/3 125/1/3 43/1/3 
f 92/1/3 126/1/3 125/1/3 
f 95/3/3 46/3/3 126/3/3 
f 95/1/3 126/1/3 92/1/3 
f 97/3/3 123/3/3 46/3/3 
f 97/3/3 46/3/3 95/3/3 
f 97/2/3 124/2/3 123/2/3 
f 52/2/3 71/2/3 124/2/3 
f 52/2/3 124/2/3 97/2/3 
f 54/2/3 71/2/3 52/2/3 
f 112/1/3 88/1/3 86/1/3 
f 113/1/3 88/1/3 112/1/3 
f 37/1/3 34/1/3 31/1/3 
f 39/1/3 34/1/3 37/1/3 
f 29/1/4 33/1/4 38/1/4 
f 38/1/4 33/1/4 36/1/4 
f 5/2/4 8/2/4 25/2/4 
f 25/2/4 8/2/4 28/2/4 
f 28/2/4 8/2/4 26/2/4 
f 10/1/4 16/1/4 127/1/4 
f 16/3/4 21/3/4 128/3/4 
f 127/1/4 16/1/4 128/1/4 
f 10/1/4 127/1/4 74/1/4 
f 127/3/4 128/3/4 78/3/4 
f 74/1/4 127/1/4 78/1/4 
f 128/3/4 21/3/4 80/3/4 
f 78/3/4 128/3/4 80/3/4 
f 21/2/4 25/2/4 129/2/4 
f 25/2/4 28/2/4 129/2/4 
f 129/2/4 28/2/4 130/2/4 
f 80/3/4 21/3/4 47/3/4 
f 21/2/4 129/2/4 131/2/4 
f 129/1/4 130/1/4 132/1/4 
f 131/2/4 129/2/4 132/2/4 
f 131/1/4 132/1/4 133/1/4 
f 132/1/4 130/1/4 133/1/4 
f 130/2/4 28/2/4 134/2/4 
f 133/1/4 130/1/4 134/1/4 
f 41/1/4 45/1/4 90/1/4 
f 45/3/4 47/3/4 94/3/4 
f 90/1/4 45/1/4 94/1/4 
f 21/2/4 131/2/4 98/2/4 
f 94/3/4 47/3/4 98/3/4 
f 47/3/4 21/3/4 98/3/4 
f 131/1/4 133/1/4 100/1/4 
f 98/2/4 131/2/4 100/2/4 
f 133/2/4 134/2/4 102/2/4 
f 100/1/4 133/1/4 102/1/4 
f 134/2/4 28/2/4 104/2/4 
f 102/2/4 134/2/4 104/2/4 
f 104/2/4 28/2/4 105/2/4 
f 81/1/4 83/1/4 107/1/4 
f 107/1/4 83/1/4 109/1/4 
f 105/2/4 107/2/4 118/2/4 
f 104/2/4 105/2/4 118/2/4 
f 118/2/4 107/2/4 120/2/4 
f 27/1/4 35/1/4 82/1/4 
f 82/1/4 35/1/4 84/1/4 
f 27/1/4 82/1/4 106/1/4 
f 106/1/4 82/1/4 108/1/4 
f 84/1/4 35/1/4 111/1/4 
f 111/1/4 35/1/4 114/1/4 
f 10/1/5 73/1/5 11/1/5 
f 74/1/5 73/1/5 10/1/5 
f 41/1/5 89/1/5 42/1/5 
f 90/1/5 89/1/5 41/1/5 
f 80/3/5 46/3/5 79/3/5 
f 47/3/5 46/3/5 80/3/5 
f 62/1/5 61/1/5 3/1/5 
f 58/1/5 115/1/5 59/1/5 
f 135/1/5 65/1/5 62/1/5 
f 135/1/5 62/1/5 3/1/5 
f 136/1/5 65/1/5 135/1/5 
f 49/1/5 58/1/5 50/1/5 
f 116/1/5 115/1/5 58/1/5 
f 116/1/5 58/1/5 49/1/5 
f 2/1/5 135/1/5 3/1/5 
f 137/2/5 136/2/5 135/2/5 
f 137/1/5 135/1/5 2/1/5 
f 138/1/5 65/1/5 136/1/5 
f 138/2/5 136/2/5 137/2/5 
f 24/1/5 65/1/5 138/1/5 
f 52/2/5 116/2/5 49/2/5 
f 139/2/5 116/2/5 52/2/5 
f 103/1/5 139/1/5 52/1/5 
f 140/2/5 116/2/5 139/2/5 
f 140/1/5 139/1/5 103/1/5 
f 5/2/5 137/2/5 2/2/5 
f 5/2/5 24/2/5 138/2/5 
f 5/2/5 138/2/5 137/2/5 
f 25/2/5 24/2/5 5/2/5 
f 104/2/5 140/2/5 103/2/5 
f 118/2/5 116/2/5 140/2/5 
f 118/2/5 140/2/5 104/2/5 
f 64/1/5 69/1/5 63/1/5 
f 66/1/5 69/1/5 64/1/5 
f 48/1/5 57/1/5 53/1/5 
f 60/1/5 57/1/5 48/1/5 
f 71/1/5 51/1/5 70/1/5 
f 54/1/5 51/1/5 71/1/5 
f 27/1/5 105/1/5 28/1/5 
f 106/1/5 105/1/5 27/1/5 
f 84/1/5 109/1/5 83/1/5 
f 111/1/5 109/1/5 84/1/5 
f 9/1/6 75/1/6 12/1/6 
f 12/1/6 75/1/6 76/1/6 
f 40/1/6 91/1/6 43/1/6 
f 43/1/6 91/1/6 92/1/6 
f 6/1/6 72/1/6 7/1/6 
f 7/1/6 72/1/6 30/1/6 
f 55/1/6 117/1/6 56/1/6 
f 56/1/6 117/1/6 141/1/6 
f 141/1/6 117/1/6 142/1/6 
f 142/1/6 117/1/6 119/1/6 
f 56/2/6 141/2/6 143/2/6 
f 141/1/6 142/1/6 143/1/6 
f 142/2/6 119/2/6 144/2/6 
f 143/1/6 142/1/6 144/1/6 
f 7/2/6 30/2/6 8/2/6 
f 8/2/6 30/2/6 26/2/6 
f 56/2/6 143/2/6 107/2/6 
f 143/2/6 144/2/6 107/2/6 
f 144/2/6 119/2/6 120/2/6 
f 107/2/6 144/2/6 120/2/6 
f 81/1/6 107/1/6 82/1/6 
f 82/1/6 107/1/6 108/1/6 
f 85/1/6 110/1/6 86/1/6 
f 86/1/6 110/1/6 112/1/6 
f 29/1/6 38/1/6 31/1/6 
f 31/1/6 38/1/6 37/1/6 
f 32/1/6 87/1/6 88/1/6 
f 32/1/6 88/1/6 33/1/6 
f 88/1/6 113/1/6 33/1/6 
f 33/1/6 113/1/6 36/1/6 
f 36/1/6 113/1/6 39/1/6 
f 34/1/6 39/1/6 35/1/6 
f 39/1/6 113/1/6 114/1/6 
f 35/1/6 39/1/6 114/1/6 
# 284 faces

