# 3ds Max Wavefront OBJ Exporter v0.97b - (c)2007 guruware
# File Created: 29.05.2020 13:12:28

#
# object spider3
#

# material
mtllib spider3.mtl
usemtl palette

v  -0.7500 -0.2500 0.0500
v  -0.7500 -0.3500 -0.0500
v  -0.7500 -0.3500 0.0500
v  -0.7500 -0.2500 -0.0500
v  -0.7500 -0.2500 -0.1500
v  -0.7500 -0.3500 -0.2500
v  -0.7500 -0.3500 -0.1500
v  -0.7500 -0.2500 -0.2500
v  -0.6500 -0.2500 0.5500
v  -0.6500 -0.3500 0.4500
v  -0.6500 -0.3500 0.5500
v  -0.6500 -0.2500 0.4500
v  -0.6500 -0.2500 0.3500
v  -0.6500 -0.3500 0.2500
v  -0.6500 -0.3500 0.3500
v  -0.6500 -0.2500 0.2500
v  -0.6500 0.0500 0.0500
v  -0.6500 -0.2500 -0.0500
v  -0.6500 -0.2500 0.0500
v  -0.6500 0.0500 -0.0500
v  -0.6500 0.0500 -0.1500
v  -0.6500 -0.2500 -0.2500
v  -0.6500 -0.2500 -0.1500
v  -0.6500 0.0500 -0.2500
v  -0.5500 -0.0500 0.5500
v  -0.5500 -0.2500 0.4500
v  -0.5500 -0.2500 0.5500
v  -0.5500 -0.0500 0.4500
v  -0.5500 -0.0500 0.3500
v  -0.5500 -0.2500 0.2500
v  -0.5500 -0.2500 0.3500
v  -0.5500 -0.0500 0.2500
v  -0.3500 -0.1500 -0.0500
v  -0.3500 -0.2500 -0.1500
v  -0.3500 -0.2500 -0.0500
v  -0.3500 -0.1500 -0.6500
v  -0.3500 -0.2500 -0.6500
v  -0.3500 -0.2500 -0.5500
v  -0.3500 -0.0500 0.0500
v  -0.3500 -0.1500 0.0500
v  -0.3500 -0.0500 -0.0500
v  -0.3500 -0.0500 -0.1500
v  -0.3500 -0.2500 -0.2500
v  -0.3500 -0.0500 -0.2500
v  -0.3500 -0.2500 -0.3500
v  -0.3500 0.0500 -0.0500
v  -0.3500 0.0500 -0.1500
v  -0.3500 0.0500 -0.2500
v  -0.3500 0.2500 0.0500
v  -0.3500 0.0500 0.0500
v  -0.3500 0.2500 -0.0500
v  -0.3500 0.2500 -0.6500
v  -0.3500 -0.1500 -0.7500
v  -0.3500 0.2500 -0.7500
v  -0.3500 0.3500 -0.0500
v  -0.3500 0.3500 -0.1500
v  -0.3500 0.3500 -0.2500
v  -0.3500 0.3500 -0.3500
v  -0.3500 -0.2500 -0.4500
v  -0.3500 0.3500 -0.4500
v  -0.3500 0.3500 -0.5500
v  -0.3500 0.3500 -0.6500
v  -0.2500 -0.1500 0.5500
v  -0.2500 -0.2500 0.4500
v  -0.2500 -0.2500 0.5500
v  -0.2500 -0.1500 0.4500
v  -0.2500 -0.2500 0.3500
v  -0.2500 -0.1500 0.3500
v  -0.2500 -0.2500 0.2500
v  -0.2500 -0.1500 0.2500
v  -0.2500 -0.1500 0.0500
v  -0.2500 -0.2500 -0.0500
v  -0.2500 -0.2500 0.0500
v  -0.2500 -0.1500 -0.0500
v  -0.2500 -0.1500 -0.6500
v  -0.2500 -0.2500 -0.7500
v  -0.2500 -0.2500 -0.6500
v  -0.2500 -0.1500 -0.7500
v  -0.2500 -0.0500 0.5500
v  -0.2500 -0.1500 0.6500
v  -0.2500 -0.0500 0.4500
v  -0.2500 -0.0500 0.3500
v  -0.2500 -0.0500 0.2500
v  -0.2500 -0.1500 0.1500
v  -0.2500 0.1500 0.6500
v  -0.2500 0.1500 0.5500
v  -0.2500 0.1500 0.2500
v  -0.2500 0.1500 0.1500
v  -0.2500 0.2500 0.5500
v  -0.2500 0.2500 0.4500
v  -0.2500 0.2500 0.3500
v  -0.2500 0.2500 0.2500
v  -0.2500 0.3500 0.0500
v  -0.2500 0.2500 -0.0500
v  -0.2500 0.2500 0.0500
v  -0.2500 0.3500 -0.0500
v  -0.2500 0.3500 -0.6500
v  -0.2500 0.2500 -0.7500
v  -0.2500 0.2500 -0.6500
v  -0.2500 0.3500 -0.7500
v  -0.1500 -0.1500 0.7500
v  -0.1500 -0.2500 0.6500
v  -0.1500 -0.2500 0.7500
v  -0.1500 -0.1500 0.6500
v  -0.1500 -0.2500 0.5500
v  -0.1500 -0.1500 0.5500
v  -0.1500 -0.1500 0.2500
v  -0.1500 -0.2500 0.1500
v  -0.1500 -0.2500 0.2500
v  -0.1500 -0.1500 0.1500
v  -0.1500 -0.0500 0.7500
v  -0.1500 -0.0500 0.6500
v  -0.1500 0.1500 0.1500
v  -0.1500 -0.1500 0.0500
v  -0.1500 0.1500 0.0500
v  -0.1500 0.2500 0.6500
v  -0.1500 0.1500 0.5500
v  -0.1500 0.1500 0.6500
v  -0.1500 0.2500 0.5500
v  -0.1500 0.2500 0.2500
v  -0.1500 0.1500 0.2500
v  -0.1500 0.2500 0.1500
v  0.0500 -0.1500 0.7500
v  0.0500 -0.2500 0.6500
v  0.0500 -0.2500 0.7500
v  0.0500 -0.1500 0.6500
v  0.0500 -0.0500 0.7500
v  0.0500 -0.0500 0.6500
v  0.4500 -0.1500 0.5500
v  0.4500 -0.3500 0.4500
v  0.4500 -0.3500 0.5500
v  0.4500 -0.1500 0.4500
v  0.4500 -0.1500 0.3500
v  0.4500 -0.3500 0.2500
v  0.4500 -0.3500 0.3500
v  0.4500 -0.1500 0.2500
v  0.5500 -0.0500 0.0500
v  0.5500 -0.3500 -0.0500
v  0.5500 -0.3500 0.0500
v  0.5500 -0.0500 -0.0500
v  0.5500 -0.0500 -0.1500
v  0.5500 -0.3500 -0.2500
v  0.5500 -0.3500 -0.1500
v  0.5500 -0.0500 -0.2500
v  -0.5500 -0.3500 0.0500
v  -0.5500 -0.3500 -0.0500
v  -0.5500 -0.0500 0.0500
v  -0.5500 -0.0500 -0.0500
v  -0.5500 -0.3500 -0.1500
v  -0.5500 -0.3500 -0.2500
v  -0.5500 -0.0500 -0.1500
v  -0.5500 -0.0500 -0.2500
v  -0.4500 -0.3500 0.5500
v  -0.4500 -0.3500 0.4500
v  -0.4500 -0.1500 0.5500
v  -0.4500 -0.1500 0.4500
v  -0.4500 -0.3500 0.3500
v  -0.4500 -0.3500 0.2500
v  -0.4500 -0.1500 0.3500
v  -0.4500 -0.1500 0.2500
v  -0.0500 -0.2500 0.7500
v  -0.0500 -0.2500 0.6500
v  -0.0500 -0.1500 0.7500
v  -0.0500 -0.1500 0.6500
v  -0.0500 -0.0500 0.7500
v  -0.0500 -0.0500 0.6500
v  0.1500 -0.2500 0.7500
v  0.1500 -0.2500 0.6500
v  0.1500 -0.1500 0.7500
v  0.1500 -0.2500 0.5500
v  0.1500 -0.1500 0.6500
v  0.1500 -0.1500 0.5500
v  0.1500 -0.2500 0.2500
v  0.1500 -0.2500 0.1500
v  0.1500 -0.1500 0.2500
v  0.1500 -0.1500 0.1500
v  0.1500 -0.0500 0.7500
v  0.1500 -0.0500 0.6500
v  0.1500 -0.1500 0.0500
v  0.1500 0.1500 0.1500
v  0.1500 0.1500 0.0500
v  0.1500 0.1500 0.6500
v  0.1500 0.1500 0.5500
v  0.1500 0.2500 0.6500
v  0.1500 0.2500 0.5500
v  0.1500 0.1500 0.2500
v  0.1500 0.2500 0.2500
v  0.1500 0.2500 0.1500
v  0.2500 -0.2500 0.5500
v  0.2500 -0.2500 0.4500
v  0.2500 -0.1500 0.5500
v  0.2500 -0.2500 0.3500
v  0.2500 -0.1500 0.4500
v  0.2500 -0.2500 0.2500
v  0.2500 -0.1500 0.3500
v  0.2500 -0.1500 0.2500
v  0.2500 -0.2500 0.0500
v  0.2500 -0.2500 -0.0500
v  0.2500 -0.1500 0.0500
v  0.2500 -0.1500 -0.0500
v  0.2500 -0.2500 -0.6500
v  0.2500 -0.2500 -0.7500
v  0.2500 -0.1500 -0.6500
v  0.2500 -0.1500 -0.7500
v  0.2500 -0.1500 0.6500
v  0.2500 -0.0500 0.5500
v  0.2500 -0.0500 0.4500
v  0.2500 -0.0500 0.3500
v  0.2500 -0.1500 0.1500
v  0.2500 -0.0500 0.2500
v  0.2500 0.1500 0.6500
v  0.2500 0.1500 0.5500
v  0.2500 0.1500 0.2500
v  0.2500 0.1500 0.1500
v  0.2500 0.2500 0.5500
v  0.2500 0.2500 0.4500
v  0.2500 0.2500 0.3500
v  0.2500 0.2500 0.2500
v  0.2500 0.2500 0.0500
v  0.2500 0.2500 -0.0500
v  0.2500 0.3500 0.0500
v  0.2500 0.3500 -0.0500
v  0.2500 0.2500 -0.6500
v  0.2500 0.2500 -0.7500
v  0.2500 0.3500 -0.6500
v  0.2500 0.3500 -0.7500
v  0.3500 -0.2500 -0.0500
v  0.3500 -0.2500 -0.1500
v  0.3500 -0.1500 -0.0500
v  0.3500 -0.2500 -0.5500
v  0.3500 -0.2500 -0.6500
v  0.3500 -0.1500 -0.6500
v  0.3500 -0.1500 0.0500
v  0.3500 -0.0500 0.0500
v  0.3500 -0.0500 -0.0500
v  0.3500 -0.2500 -0.2500
v  0.3500 -0.0500 -0.1500
v  0.3500 -0.2500 -0.3500
v  0.3500 -0.0500 -0.2500
v  0.3500 0.0500 -0.0500
v  0.3500 0.0500 -0.1500
v  0.3500 0.0500 -0.2500
v  0.3500 0.0500 0.0500
v  0.3500 0.2500 0.0500
v  0.3500 0.2500 -0.0500
v  0.3500 -0.1500 -0.7500
v  0.3500 0.2500 -0.6500
v  0.3500 0.2500 -0.7500
v  0.3500 0.3500 -0.0500
v  0.3500 0.3500 -0.1500
v  0.3500 0.3500 -0.2500
v  0.3500 -0.2500 -0.4500
v  0.3500 0.3500 -0.3500
v  0.3500 0.3500 -0.4500
v  0.3500 0.3500 -0.5500
v  0.3500 0.3500 -0.6500
v  0.5500 -0.2500 0.5500
v  0.5500 -0.2500 0.4500
v  0.5500 -0.0500 0.5500
v  0.5500 -0.0500 0.4500
v  0.5500 -0.2500 0.3500
v  0.5500 -0.2500 0.2500
v  0.5500 -0.0500 0.3500
v  0.5500 -0.0500 0.2500
v  0.6500 -0.3500 0.5500
v  0.6500 -0.3500 0.4500
v  0.6500 -0.2500 0.5500
v  0.6500 -0.2500 0.4500
v  0.6500 -0.3500 0.3500
v  0.6500 -0.3500 0.2500
v  0.6500 -0.2500 0.3500
v  0.6500 -0.2500 0.2500
v  0.6500 -0.2500 0.0500
v  0.6500 -0.2500 -0.0500
v  0.6500 0.0500 0.0500
v  0.6500 0.0500 -0.0500
v  0.6500 -0.2500 -0.1500
v  0.6500 -0.2500 -0.2500
v  0.6500 0.0500 -0.1500
v  0.6500 0.0500 -0.2500
v  0.7500 -0.3500 0.0500
v  0.7500 -0.3500 -0.0500
v  0.7500 -0.2500 0.0500
v  0.7500 -0.2500 -0.0500
v  0.7500 -0.3500 -0.1500
v  0.7500 -0.3500 -0.2500
v  0.7500 -0.2500 -0.1500
v  0.7500 -0.2500 -0.2500
v  -0.1500 -0.1500 -0.7500
v  -0.1500 0.2500 -0.7500
v  -0.0500 -0.0500 -0.7500
v  -0.0500 0.1500 -0.7500
v  0.0500 -0.0500 -0.7500
v  0.0500 0.1500 -0.7500
v  0.1500 -0.1500 -0.7500
v  0.1500 0.2500 -0.7500
# 296 vertices

vn -1.0000 0.0000 -0.0000
vn 1.0000 0.0000 -0.0000
vn 0.0000 0.0000 1.0000
vn 0.0000 0.0000 -1.0000
vn 0.0000 -1.0000 -0.0000
vn 0.0000 1.0000 -0.0000
# 6 vertex normals

vt 0.9941 0.5000 0.0000
vt 0.5332 0.5000 0.0000
vt 0.9707 0.5000 0.0000
# 3 texture coords

o spider3
g spider3
f 1/1/1 2/1/1 3/1/1 
f 4/1/1 2/1/1 1/1/1 
f 5/1/1 6/1/1 7/1/1 
f 8/1/1 6/1/1 5/1/1 
f 9/2/1 10/2/1 11/2/1 
f 12/2/1 10/2/1 9/2/1 
f 13/2/1 14/2/1 15/2/1 
f 16/2/1 14/2/1 13/2/1 
f 17/1/1 18/1/1 19/1/1 
f 20/1/1 18/1/1 17/1/1 
f 21/1/1 22/1/1 23/1/1 
f 24/1/1 22/1/1 21/1/1 
f 25/2/1 26/2/1 27/2/1 
f 28/2/1 26/2/1 25/2/1 
f 29/2/1 30/2/1 31/2/1 
f 32/2/1 30/2/1 29/2/1 
f 33/2/1 34/2/1 35/2/1 
f 36/1/1 37/1/1 38/1/1 
f 39/1/1 33/1/1 40/1/1 
f 41/2/1 34/2/1 33/2/1 
f 41/1/1 33/1/1 39/1/1 
f 42/1/1 43/1/1 34/1/1 
f 42/2/1 34/2/1 41/2/1 
f 44/2/1 45/2/1 43/2/1 
f 44/1/1 43/1/1 42/1/1 
f 46/2/1 42/2/1 41/2/1 
f 47/2/1 42/2/1 46/2/1 
f 48/2/1 45/2/1 44/2/1 
f 49/1/1 46/1/1 50/1/1 
f 51/2/1 47/2/1 46/2/1 
f 51/1/1 46/1/1 49/1/1 
f 52/2/1 53/2/1 36/2/1 
f 52/1/1 36/1/1 38/1/1 
f 54/2/1 53/2/1 52/2/1 
f 55/2/1 47/2/1 51/2/1 
f 56/1/1 48/1/1 47/1/1 
f 56/2/1 47/2/1 55/2/1 
f 57/2/1 45/2/1 48/2/1 
f 57/1/1 48/1/1 56/1/1 
f 58/1/1 59/1/1 45/1/1 
f 58/2/1 45/2/1 57/2/1 
f 60/2/1 38/2/1 59/2/1 
f 60/1/1 59/1/1 58/1/1 
f 61/1/1 52/1/1 38/1/1 
f 61/2/1 38/2/1 60/2/1 
f 62/1/1 52/1/1 61/1/1 
f 63/2/1 64/2/1 65/2/1 
f 66/1/1 67/1/1 64/1/1 
f 66/2/1 64/2/1 63/2/1 
f 68/2/1 69/2/1 67/2/1 
f 68/1/1 67/1/1 66/1/1 
f 70/2/1 69/2/1 68/2/1 
f 71/1/1 72/1/1 73/1/1 
f 74/1/1 72/1/1 71/1/1 
f 75/2/1 76/2/1 77/2/1 
f 78/2/1 76/2/1 75/2/1 
f 79/2/1 63/2/1 80/2/1 
f 81/1/1 68/1/1 66/1/1 
f 82/1/1 68/1/1 81/1/1 
f 83/1/1 84/1/1 70/1/1 
f 85/2/1 79/2/1 80/2/1 
f 85/2/1 81/2/1 79/2/1 
f 86/2/1 81/2/1 85/2/1 
f 87/2/1 83/2/1 82/2/1 
f 87/1/1 84/1/1 83/1/1 
f 88/1/1 84/1/1 87/1/1 
f 89/2/1 81/2/1 86/2/1 
f 90/1/1 82/1/1 81/1/1 
f 90/2/1 81/2/1 89/2/1 
f 91/2/1 87/2/1 82/2/1 
f 91/1/1 82/1/1 90/1/1 
f 92/2/1 87/2/1 91/2/1 
f 93/1/1 94/1/1 95/1/1 
f 96/1/1 94/1/1 93/1/1 
f 97/2/1 98/2/1 99/2/1 
f 100/2/1 98/2/1 97/2/1 
f 101/3/1 102/3/1 103/3/1 
f 104/2/1 105/2/1 102/2/1 
f 104/3/1 102/3/1 101/3/1 
f 106/2/1 105/2/1 104/2/1 
f 107/1/1 108/1/1 109/1/1 
f 110/1/1 108/1/1 107/1/1 
f 111/2/1 104/2/1 101/2/1 
f 112/2/1 104/2/1 111/2/1 
f 113/2/1 114/2/1 110/2/1 
f 115/2/1 114/2/1 113/2/1 
f 116/2/1 117/2/1 118/2/1 
f 119/2/1 117/2/1 116/2/1 
f 120/1/1 113/1/1 121/1/1 
f 122/1/1 113/1/1 120/1/1 
f 123/3/1 124/3/1 125/3/1 
f 126/3/1 124/3/1 123/3/1 
f 127/2/1 126/2/1 123/2/1 
f 128/2/1 126/2/1 127/2/1 
f 129/2/1 130/2/1 131/2/1 
f 132/2/1 130/2/1 129/2/1 
f 133/2/1 134/2/1 135/2/1 
f 136/2/1 134/2/1 133/2/1 
f 137/1/1 138/1/1 139/1/1 
f 140/1/1 138/1/1 137/1/1 
f 141/1/1 142/1/1 143/1/1 
f 144/1/1 142/1/1 141/1/1 
f 145/1/2 146/1/2 147/1/2 
f 147/1/2 146/1/2 148/1/2 
f 149/1/2 150/1/2 151/1/2 
f 151/1/2 150/1/2 152/1/2 
f 153/2/2 154/2/2 155/2/2 
f 155/2/2 154/2/2 156/2/2 
f 157/2/2 158/2/2 159/2/2 
f 159/2/2 158/2/2 160/2/2 
f 161/3/2 162/3/2 163/3/2 
f 163/3/2 162/3/2 164/3/2 
f 163/2/2 164/2/2 165/2/2 
f 165/2/2 164/2/2 166/2/2 
f 167/3/2 168/3/2 169/3/2 
f 168/2/2 170/2/2 171/2/2 
f 169/3/2 168/3/2 171/3/2 
f 171/2/2 170/2/2 172/2/2 
f 173/1/2 174/1/2 175/1/2 
f 175/1/2 174/1/2 176/1/2 
f 169/2/2 171/2/2 177/2/2 
f 177/2/2 171/2/2 178/2/2 
f 176/2/2 179/2/2 180/2/2 
f 180/2/2 179/2/2 181/2/2 
f 182/2/2 183/2/2 184/2/2 
f 184/2/2 183/2/2 185/2/2 
f 186/1/2 180/1/2 187/1/2 
f 187/1/2 180/1/2 188/1/2 
f 189/2/2 190/2/2 191/2/2 
f 190/1/2 192/1/2 193/1/2 
f 191/2/2 190/2/2 193/2/2 
f 192/2/2 194/2/2 195/2/2 
f 193/1/2 192/1/2 195/1/2 
f 195/2/2 194/2/2 196/2/2 
f 197/1/2 198/1/2 199/1/2 
f 199/1/2 198/1/2 200/1/2 
f 201/2/2 202/2/2 203/2/2 
f 203/2/2 202/2/2 204/2/2 
f 205/2/2 191/2/2 206/2/2 
f 193/1/2 195/1/2 207/1/2 
f 207/1/2 195/1/2 208/1/2 
f 196/1/2 209/1/2 210/1/2 
f 205/2/2 206/2/2 211/2/2 
f 206/2/2 207/2/2 211/2/2 
f 211/2/2 207/2/2 212/2/2 
f 208/2/2 210/2/2 213/2/2 
f 210/1/2 209/1/2 213/1/2 
f 213/1/2 209/1/2 214/1/2 
f 212/2/2 207/2/2 215/2/2 
f 207/1/2 208/1/2 216/1/2 
f 215/2/2 207/2/2 216/2/2 
f 208/2/2 213/2/2 217/2/2 
f 216/1/2 208/1/2 217/1/2 
f 217/2/2 213/2/2 218/2/2 
f 219/1/2 220/1/2 221/1/2 
f 221/1/2 220/1/2 222/1/2 
f 223/2/2 224/2/2 225/2/2 
f 225/2/2 224/2/2 226/2/2 
f 227/2/2 228/2/2 229/2/2 
f 230/1/2 231/1/2 232/1/2 
f 233/1/2 229/1/2 234/1/2 
f 229/2/2 228/2/2 235/2/2 
f 234/1/2 229/1/2 235/1/2 
f 228/1/2 236/1/2 237/1/2 
f 235/2/2 228/2/2 237/2/2 
f 236/2/2 238/2/2 239/2/2 
f 237/1/2 236/1/2 239/1/2 
f 235/2/2 237/2/2 240/2/2 
f 240/2/2 237/2/2 241/2/2 
f 239/2/2 238/2/2 242/2/2 
f 243/1/2 240/1/2 244/1/2 
f 240/2/2 241/2/2 245/2/2 
f 244/1/2 240/1/2 245/1/2 
f 232/2/2 246/2/2 247/2/2 
f 230/1/2 232/1/2 247/1/2 
f 247/2/2 246/2/2 248/2/2 
f 245/2/2 241/2/2 249/2/2 
f 241/1/2 242/1/2 250/1/2 
f 249/2/2 241/2/2 250/2/2 
f 242/2/2 238/2/2 251/2/2 
f 250/1/2 242/1/2 251/1/2 
f 238/1/2 252/1/2 253/1/2 
f 251/2/2 238/2/2 253/2/2 
f 252/2/2 230/2/2 254/2/2 
f 253/1/2 252/1/2 254/1/2 
f 230/1/2 247/1/2 255/1/2 
f 254/2/2 230/2/2 255/2/2 
f 255/1/2 247/1/2 256/1/2 
f 257/2/2 258/2/2 259/2/2 
f 259/2/2 258/2/2 260/2/2 
f 261/2/2 262/2/2 263/2/2 
f 263/2/2 262/2/2 264/2/2 
f 265/2/2 266/2/2 267/2/2 
f 267/2/2 266/2/2 268/2/2 
f 269/2/2 270/2/2 271/2/2 
f 271/2/2 270/2/2 272/2/2 
f 273/1/2 274/1/2 275/1/2 
f 275/1/2 274/1/2 276/1/2 
f 277/1/2 278/1/2 279/1/2 
f 279/1/2 278/1/2 280/1/2 
f 281/1/2 282/1/2 283/1/2 
f 283/1/2 282/1/2 284/1/2 
f 285/1/2 286/1/2 287/1/2 
f 287/1/2 286/1/2 288/1/2 
f 161/3/3 101/3/3 103/3/3 
f 163/2/3 111/2/3 101/2/3 
f 163/3/3 101/3/3 161/3/3 
f 165/2/3 111/2/3 163/2/3 
f 167/3/3 123/3/3 125/3/3 
f 169/2/3 127/2/3 123/2/3 
f 169/3/3 123/3/3 167/3/3 
f 177/2/3 127/2/3 169/2/3 
f 104/2/3 85/2/3 80/2/3 
f 112/2/3 85/2/3 104/2/3 
f 118/2/3 85/2/3 112/2/3 
f 166/2/3 116/2/3 118/2/3 
f 166/2/3 118/2/3 112/2/3 
f 124/2/3 164/2/3 162/2/3 
f 124/2/3 166/2/3 164/2/3 
f 126/2/3 166/2/3 124/2/3 
f 128/2/3 116/2/3 166/2/3 
f 128/2/3 166/2/3 126/2/3 
f 178/2/3 116/2/3 128/2/3 
f 182/2/3 116/2/3 178/2/3 
f 184/2/3 116/2/3 182/2/3 
f 205/2/3 178/2/3 171/2/3 
f 205/2/3 182/2/3 178/2/3 
f 211/2/3 182/2/3 205/2/3 
f 27/2/3 9/2/3 11/2/3 
f 153/2/3 27/2/3 11/2/3 
f 153/2/3 25/2/3 27/2/3 
f 155/2/3 25/2/3 153/2/3 
f 63/2/3 25/2/3 155/2/3 
f 79/2/3 25/2/3 63/2/3 
f 105/2/3 63/2/3 65/2/3 
f 106/2/3 63/2/3 105/2/3 
f 117/2/3 89/2/3 86/2/3 
f 119/2/3 89/2/3 117/2/3 
f 189/2/3 172/2/3 170/2/3 
f 191/2/3 172/2/3 189/2/3 
f 212/2/3 185/2/3 183/2/3 
f 215/2/3 185/2/3 212/2/3 
f 129/2/3 206/2/3 191/2/3 
f 257/2/3 129/2/3 131/2/3 
f 259/2/3 206/2/3 129/2/3 
f 259/2/3 129/2/3 257/2/3 
f 265/2/3 257/2/3 131/2/3 
f 267/2/3 257/2/3 265/2/3 
f 31/2/3 13/2/3 15/2/3 
f 157/2/3 31/2/3 15/2/3 
f 157/2/3 29/2/3 31/2/3 
f 159/2/3 29/2/3 157/2/3 
f 68/2/3 29/2/3 159/2/3 
f 82/2/3 29/2/3 68/2/3 
f 133/2/3 208/2/3 195/2/3 
f 261/2/3 133/2/3 135/2/3 
f 263/2/3 208/2/3 133/2/3 
f 263/2/3 133/2/3 261/2/3 
f 269/2/3 261/2/3 135/2/3 
f 271/2/3 261/2/3 269/2/3 
f 19/1/3 1/1/3 3/1/3 
f 145/1/3 19/1/3 3/1/3 
f 145/1/3 17/1/3 19/1/3 
f 147/1/3 17/1/3 145/1/3 
f 39/1/3 17/1/3 147/1/3 
f 50/1/3 17/1/3 39/1/3 
f 71/1/3 39/1/3 40/1/3 
f 71/1/3 49/1/3 50/1/3 
f 71/1/3 50/1/3 39/1/3 
f 95/1/3 49/1/3 71/1/3 
f 114/1/3 71/1/3 73/1/3 
f 114/2/3 95/2/3 71/2/3 
f 115/2/3 95/2/3 114/2/3 
f 179/1/3 114/1/3 73/1/3 
f 181/2/3 95/2/3 115/2/3 
f 197/1/3 179/1/3 73/1/3 
f 199/2/3 181/2/3 179/2/3 
f 199/1/3 179/1/3 197/1/3 
f 219/1/3 93/1/3 95/1/3 
f 219/2/3 181/2/3 199/2/3 
f 219/2/3 95/2/3 181/2/3 
f 221/1/3 93/1/3 219/1/3 
f 233/1/3 219/1/3 199/1/3 
f 234/1/3 219/1/3 233/1/3 
f 243/1/3 219/1/3 234/1/3 
f 244/1/3 219/1/3 243/1/3 
f 137/1/3 243/1/3 234/1/3 
f 273/1/3 137/1/3 139/1/3 
f 275/1/3 243/1/3 137/1/3 
f 275/1/3 137/1/3 273/1/3 
f 281/1/3 273/1/3 139/1/3 
f 283/1/3 273/1/3 281/1/3 
f 72/2/3 33/2/3 35/2/3 
f 74/2/3 33/2/3 72/2/3 
f 94/2/3 55/2/3 51/2/3 
f 96/2/3 55/2/3 94/2/3 
f 227/2/3 200/2/3 198/2/3 
f 229/2/3 200/2/3 227/2/3 
f 245/2/3 222/2/3 220/2/3 
f 249/2/3 222/2/3 245/2/3 
f 23/1/3 5/1/3 7/1/3 
f 149/1/3 23/1/3 7/1/3 
f 149/1/3 21/1/3 23/1/3 
f 151/1/3 21/1/3 149/1/3 
f 42/1/3 21/1/3 151/1/3 
f 47/1/3 21/1/3 42/1/3 
f 141/1/3 241/1/3 237/1/3 
f 277/1/3 141/1/3 143/1/3 
f 279/1/3 241/1/3 141/1/3 
f 279/1/3 141/1/3 277/1/3 
f 285/1/3 277/1/3 143/1/3 
f 287/1/3 277/1/3 285/1/3 
f 10/2/4 12/2/4 26/2/4 
f 10/2/4 26/2/4 154/2/4 
f 26/2/4 28/2/4 154/2/4 
f 154/2/4 28/2/4 156/2/4 
f 156/2/4 28/2/4 66/2/4 
f 66/2/4 28/2/4 81/2/4 
f 193/2/4 207/2/4 132/2/4 
f 130/2/4 132/2/4 258/2/4 
f 132/2/4 207/2/4 260/2/4 
f 258/2/4 132/2/4 260/2/4 
f 130/2/4 258/2/4 266/2/4 
f 266/2/4 258/2/4 268/2/4 
f 14/2/4 16/2/4 30/2/4 
f 14/2/4 30/2/4 158/2/4 
f 30/2/4 32/2/4 158/2/4 
f 158/2/4 32/2/4 160/2/4 
f 160/2/4 32/2/4 70/2/4 
f 70/2/4 32/2/4 83/2/4 
f 69/2/4 70/2/4 109/2/4 
f 109/2/4 70/2/4 107/2/4 
f 87/2/4 92/2/4 121/2/4 
f 121/2/4 92/2/4 120/2/4 
f 173/2/4 175/2/4 194/2/4 
f 194/2/4 175/2/4 196/2/4 
f 186/2/4 187/2/4 213/2/4 
f 213/2/4 187/2/4 218/2/4 
f 196/2/4 210/2/4 136/2/4 
f 134/2/4 136/2/4 262/2/4 
f 136/2/4 210/2/4 264/2/4 
f 262/2/4 136/2/4 264/2/4 
f 134/2/4 262/2/4 270/2/4 
f 270/2/4 262/2/4 272/2/4 
f 84/1/4 88/1/4 110/1/4 
f 110/1/4 88/1/4 113/1/4 
f 108/1/4 110/1/4 174/1/4 
f 174/1/4 110/1/4 176/1/4 
f 113/1/4 122/1/4 180/1/4 
f 180/1/4 122/1/4 188/1/4 
f 176/1/4 180/1/4 209/1/4 
f 209/1/4 180/1/4 214/1/4 
f 2/1/4 4/1/4 18/1/4 
f 2/1/4 18/1/4 146/1/4 
f 18/1/4 20/1/4 146/1/4 
f 146/1/4 20/1/4 148/1/4 
f 148/1/4 20/1/4 41/1/4 
f 41/1/4 20/1/4 46/1/4 
f 235/1/4 240/1/4 140/1/4 
f 138/1/4 140/1/4 274/1/4 
f 140/1/4 240/1/4 276/1/4 
f 274/1/4 140/1/4 276/1/4 
f 138/1/4 274/1/4 282/1/4 
f 282/1/4 274/1/4 284/1/4 
f 6/1/4 8/1/4 22/1/4 
f 6/1/4 22/1/4 150/1/4 
f 22/1/4 24/1/4 150/1/4 
f 150/1/4 24/1/4 152/1/4 
f 152/1/4 24/1/4 44/1/4 
f 44/1/4 24/1/4 48/1/4 
f 239/1/4 242/1/4 144/1/4 
f 142/1/4 144/1/4 278/1/4 
f 144/1/4 242/1/4 280/1/4 
f 278/1/4 144/1/4 280/1/4 
f 142/1/4 278/1/4 286/1/4 
f 286/1/4 278/1/4 288/1/4 
f 37/1/4 36/1/4 77/1/4 
f 77/1/4 36/1/4 75/1/4 
f 52/1/4 62/1/4 99/1/4 
f 99/1/4 62/1/4 97/1/4 
f 201/1/4 203/1/4 231/1/4 
f 231/1/4 203/1/4 232/1/4 
f 223/1/4 225/1/4 247/1/4 
f 247/1/4 225/1/4 256/1/4 
f 53/2/4 54/2/4 78/2/4 
f 78/2/4 54/2/4 98/2/4 
f 76/2/4 78/2/4 289/2/4 
f 98/2/4 100/2/4 289/2/4 
f 78/2/4 98/2/4 289/2/4 
f 289/2/4 100/2/4 290/2/4 
f 289/1/4 290/1/4 291/1/4 
f 291/1/4 290/1/4 292/1/4 
f 289/1/4 291/1/4 293/1/4 
f 291/2/4 292/2/4 293/2/4 
f 292/1/4 290/1/4 294/1/4 
f 293/2/4 292/2/4 294/2/4 
f 76/2/4 289/2/4 295/2/4 
f 289/1/4 293/1/4 295/1/4 
f 293/1/4 294/1/4 295/1/4 
f 294/1/4 290/1/4 296/1/4 
f 295/1/4 294/1/4 296/1/4 
f 290/2/4 100/2/4 296/2/4 
f 76/2/4 295/2/4 202/2/4 
f 295/2/4 296/2/4 202/2/4 
f 202/2/4 296/2/4 204/2/4 
f 296/2/4 100/2/4 224/2/4 
f 204/2/4 296/2/4 224/2/4 
f 224/2/4 100/2/4 226/2/4 
f 204/2/4 224/2/4 246/2/4 
f 246/2/4 224/2/4 248/2/4 
f 10/2/5 153/2/5 11/2/5 
f 154/2/5 153/2/5 10/2/5 
f 130/2/5 265/2/5 131/2/5 
f 266/2/5 265/2/5 130/2/5 
f 14/2/5 157/2/5 15/2/5 
f 158/2/5 157/2/5 14/2/5 
f 134/2/5 269/2/5 135/2/5 
f 270/2/5 269/2/5 134/2/5 
f 2/1/5 145/1/5 3/1/5 
f 146/1/5 145/1/5 2/1/5 
f 138/1/5 281/1/5 139/1/5 
f 282/1/5 281/1/5 138/1/5 
f 6/1/5 149/1/5 7/1/5 
f 150/1/5 149/1/5 6/1/5 
f 142/1/5 285/1/5 143/1/5 
f 286/1/5 285/1/5 142/1/5 
f 102/3/5 161/3/5 103/3/5 
f 162/3/5 161/3/5 102/3/5 
f 124/3/5 167/3/5 125/3/5 
f 168/3/5 167/3/5 124/3/5 
f 105/2/5 162/2/5 102/2/5 
f 105/2/5 124/2/5 162/2/5 
f 105/2/5 168/2/5 124/2/5 
f 170/2/5 168/2/5 105/2/5 
f 64/2/5 170/2/5 105/2/5 
f 64/2/5 189/2/5 170/2/5 
f 64/2/5 105/2/5 65/2/5 
f 190/2/5 189/2/5 64/2/5 
f 67/1/5 190/1/5 64/1/5 
f 192/1/5 190/1/5 67/1/5 
f 69/2/5 192/2/5 67/2/5 
f 109/2/5 192/2/5 69/2/5 
f 173/2/5 192/2/5 109/2/5 
f 194/2/5 192/2/5 173/2/5 
f 108/1/5 173/1/5 109/1/5 
f 174/1/5 173/1/5 108/1/5 
f 72/1/5 197/1/5 73/1/5 
f 198/1/5 197/1/5 72/1/5 
f 34/2/5 198/2/5 72/2/5 
f 34/2/5 227/2/5 198/2/5 
f 34/2/5 72/2/5 35/2/5 
f 228/2/5 227/2/5 34/2/5 
f 43/1/5 228/1/5 34/1/5 
f 236/1/5 228/1/5 43/1/5 
f 45/2/5 236/2/5 43/2/5 
f 238/2/5 236/2/5 45/2/5 
f 59/1/5 238/1/5 45/1/5 
f 252/1/5 238/1/5 59/1/5 
f 38/2/5 252/2/5 59/2/5 
f 230/2/5 252/2/5 38/2/5 
f 37/1/5 230/1/5 38/1/5 
f 77/1/5 230/1/5 37/1/5 
f 201/1/5 230/1/5 77/1/5 
f 231/1/5 230/1/5 201/1/5 
f 76/2/5 201/2/5 77/2/5 
f 202/2/5 201/2/5 76/2/5 
f 63/2/5 104/2/5 80/2/5 
f 106/2/5 104/2/5 63/2/5 
f 172/2/5 205/2/5 171/2/5 
f 191/2/5 205/2/5 172/2/5 
f 156/2/5 63/2/5 155/2/5 
f 66/2/5 63/2/5 156/2/5 
f 193/2/5 129/2/5 191/2/5 
f 132/2/5 129/2/5 193/2/5 
f 160/2/5 68/2/5 159/2/5 
f 70/2/5 68/2/5 160/2/5 
f 196/2/5 133/2/5 195/2/5 
f 136/2/5 133/2/5 196/2/5 
f 84/1/5 107/1/5 70/1/5 
f 110/1/5 107/1/5 84/1/5 
f 176/1/5 196/1/5 175/1/5 
f 209/1/5 196/1/5 176/1/5 
f 114/2/5 176/2/5 110/2/5 
f 179/2/5 176/2/5 114/2/5 
f 33/1/5 71/1/5 40/1/5 
f 74/1/5 71/1/5 33/1/5 
f 200/1/5 233/1/5 199/1/5 
f 229/1/5 233/1/5 200/1/5 
f 53/2/5 75/2/5 36/2/5 
f 78/2/5 75/2/5 53/2/5 
f 204/2/5 232/2/5 203/2/5 
f 246/2/5 232/2/5 204/2/5 
f 148/1/5 39/1/5 147/1/5 
f 41/1/5 39/1/5 148/1/5 
f 235/1/5 137/1/5 234/1/5 
f 140/1/5 137/1/5 235/1/5 
f 152/1/5 42/1/5 151/1/5 
f 44/1/5 42/1/5 152/1/5 
f 239/1/5 141/1/5 237/1/5 
f 144/1/5 141/1/5 239/1/5 
f 9/2/6 27/2/6 12/2/6 
f 12/2/6 27/2/6 26/2/6 
f 257/2/6 267/2/6 258/2/6 
f 258/2/6 267/2/6 268/2/6 
f 13/2/6 31/2/6 16/2/6 
f 16/2/6 31/2/6 30/2/6 
f 261/2/6 271/2/6 262/2/6 
f 262/2/6 271/2/6 272/2/6 
f 1/1/6 19/1/6 4/1/6 
f 4/1/6 19/1/6 18/1/6 
f 273/1/6 283/1/6 274/1/6 
f 274/1/6 283/1/6 284/1/6 
f 5/1/6 23/1/6 8/1/6 
f 8/1/6 23/1/6 22/1/6 
f 277/1/6 287/1/6 278/1/6 
f 278/1/6 287/1/6 288/1/6 
f 111/2/6 165/2/6 112/2/6 
f 112/2/6 165/2/6 166/2/6 
f 127/2/6 177/2/6 128/2/6 
f 128/2/6 177/2/6 178/2/6 
f 25/2/6 79/2/6 28/2/6 
f 28/2/6 79/2/6 81/2/6 
f 206/2/6 259/2/6 207/2/6 
f 207/2/6 259/2/6 260/2/6 
f 29/2/6 82/2/6 32/2/6 
f 32/2/6 82/2/6 83/2/6 
f 208/2/6 263/2/6 210/2/6 
f 210/2/6 263/2/6 264/2/6 
f 17/1/6 50/1/6 20/1/6 
f 20/1/6 50/1/6 46/1/6 
f 243/1/6 275/1/6 240/1/6 
f 240/1/6 275/1/6 276/1/6 
f 21/1/6 47/1/6 24/1/6 
f 24/1/6 47/1/6 48/1/6 
f 241/1/6 279/1/6 242/1/6 
f 242/1/6 279/1/6 280/1/6 
f 85/2/6 118/2/6 86/2/6 
f 86/2/6 118/2/6 117/2/6 
f 182/2/6 211/2/6 183/2/6 
f 183/2/6 211/2/6 212/2/6 
f 87/1/6 121/1/6 88/1/6 
f 88/1/6 121/1/6 113/1/6 
f 186/1/6 213/1/6 180/1/6 
f 180/1/6 213/1/6 214/1/6 
f 113/2/6 180/2/6 115/2/6 
f 115/2/6 180/2/6 181/2/6 
f 116/2/6 184/2/6 119/2/6 
f 119/2/6 184/2/6 185/2/6 
f 89/2/6 119/2/6 90/2/6 
f 185/2/6 215/2/6 90/2/6 
f 119/2/6 185/2/6 90/2/6 
f 90/2/6 215/2/6 216/2/6 
f 90/1/6 216/1/6 91/1/6 
f 91/1/6 216/1/6 217/1/6 
f 91/2/6 217/2/6 92/2/6 
f 92/2/6 217/2/6 120/2/6 
f 120/2/6 217/2/6 187/2/6 
f 187/2/6 217/2/6 218/2/6 
f 120/1/6 187/1/6 122/1/6 
f 122/1/6 187/1/6 188/1/6 
f 49/1/6 95/1/6 51/1/6 
f 51/1/6 95/1/6 94/1/6 
f 219/1/6 244/1/6 220/1/6 
f 220/1/6 244/1/6 245/1/6 
f 52/2/6 99/2/6 54/2/6 
f 54/2/6 99/2/6 98/2/6 
f 223/2/6 247/2/6 224/2/6 
f 224/2/6 247/2/6 248/2/6 
f 93/1/6 221/1/6 96/1/6 
f 96/1/6 221/1/6 222/1/6 
f 55/2/6 96/2/6 56/2/6 
f 222/2/6 249/2/6 56/2/6 
f 96/2/6 222/2/6 56/2/6 
f 56/2/6 249/2/6 250/2/6 
f 56/1/6 250/1/6 57/1/6 
f 57/1/6 250/1/6 251/1/6 
f 57/2/6 251/2/6 58/2/6 
f 58/2/6 251/2/6 253/2/6 
f 58/1/6 253/1/6 60/1/6 
f 60/1/6 253/1/6 254/1/6 
f 60/2/6 254/2/6 61/2/6 
f 61/2/6 254/2/6 255/2/6 
f 61/1/6 255/1/6 62/1/6 
f 62/1/6 255/1/6 97/1/6 
f 97/1/6 255/1/6 225/1/6 
f 225/1/6 255/1/6 256/1/6 
f 97/2/6 225/2/6 100/2/6 
f 100/2/6 225/2/6 226/2/6 
# 588 faces

