# 3ds Max Wavefront OBJ Exporter v0.97b - (c)2007 guruware
# File Created: 29.05.2020 13:19:40

#
# object zombie5
#

# material
mtllib zombie5.mtl
usemtl palette

v  -0.3000 -0.6000 -0.0500
v  -0.3000 -0.7000 -0.3500
v  -0.3000 -0.7000 -0.0500
v  -0.3000 -0.6000 -0.1500
v  -0.3000 -0.5000 -0.1500
v  -0.3000 -0.5000 -0.3500
v  -0.3000 -0.3000 -0.1500
v  -0.3000 -0.3000 -0.3500
v  -0.3000 -0.2000 -0.1500
v  -0.3000 -0.2000 -0.3500
v  -0.3000 -0.1000 -0.1500
v  -0.3000 -0.1000 -0.2500
v  -0.3000 0.0000 -0.1500
v  -0.3000 0.0000 -0.2500
v  -0.3000 0.0000 -0.3500
v  -0.3000 0.1000 -0.0500
v  -0.3000 0.0000 -0.0500
v  -0.3000 0.1000 -0.1500
v  -0.3000 0.2000 -0.0500
v  -0.3000 0.2000 -0.1500
v  -0.3000 0.2000 -0.2500
v  -0.3000 0.3000 0.0500
v  -0.3000 0.2000 0.0500
v  -0.3000 0.3000 -0.1500
v  -0.3000 0.4000 0.0500
v  -0.3000 0.3000 -0.2500
v  -0.3000 0.7000 0.1500
v  -0.3000 0.4000 0.1500
v  -0.3000 0.7000 -0.2500
v  -0.2000 0.4000 0.1500
v  -0.2000 0.3000 0.0500
v  -0.2000 0.3000 0.1500
v  -0.2000 0.4000 0.0500
v  0.1000 0.2000 0.1500
v  0.1000 0.1000 0.0500
v  0.1000 0.1000 0.3500
v  0.1000 0.2000 0.0500
v  0.1000 0.1000 -0.0500
v  0.1000 0.2000 -0.0500
v  0.1000 0.3000 0.3500
v  0.1000 0.3000 0.1500
v  0.1000 0.3000 0.0500
v  0.1000 -0.7000 -0.0500
v  0.1000 -0.7000 -0.3500
v  0.1000 -0.6000 -0.0500
v  0.1000 -0.6000 -0.1500
v  0.1000 -0.5000 -0.1500
v  0.1000 -0.5000 -0.3500
v  0.1000 -0.4000 -0.1500
v  0.1000 -0.4000 -0.3500
v  0.1000 -0.2000 -0.1500
v  0.1000 -0.2000 -0.3500
v  0.1000 -0.1000 -0.2500
v  0.1000 -0.1000 -0.3500
v  0.1000 0.0000 -0.1500
v  0.1000 0.0000 -0.2500
v  0.1000 0.0000 -0.3500
v  0.1000 0.0000 -0.0500
v  0.1000 0.1000 -0.1500
v  0.1000 0.1000 -0.2500
v  0.1000 0.2000 -0.1500
v  0.1000 0.2000 -0.2500
v  0.1000 0.3000 -0.1500
v  0.1000 0.7000 0.1500
v  0.1000 0.3000 -0.2500
v  0.1000 0.7000 -0.2500
v  0.2000 0.1000 0.3500
v  0.2000 0.1000 0.2500
v  0.2000 0.2000 0.3500
v  0.2000 0.2000 0.2500
v  0.3000 0.1000 0.2500
v  0.3000 0.1000 0.1500
v  0.3000 0.2000 0.2500
v  0.3000 0.1000 -0.1500
v  0.3000 0.2000 0.1500
v  0.3000 0.2000 0.0500
v  0.3000 0.2000 0.3500
v  0.3000 0.3000 0.3500
v  0.3000 0.3000 0.0500
v  0.3000 0.3000 -0.1500
v  -0.2000 0.0000 -0.0500
v  -0.2000 0.1000 -0.0500
v  -0.2000 0.0000 -0.1500
v  -0.1000 -0.4000 -0.1500
v  -0.1000 -0.3000 -0.1500
v  -0.1000 -0.1000 -0.1500
v  -0.1000 0.0000 -0.1500
v  -0.1000 0.0000 -0.2500
v  -0.1000 0.1000 -0.2500
v  0.0000 0.0000 -0.2500
v  -0.1000 -0.4000 -0.3500
v  -0.1000 -0.3000 -0.3500
v  0.0000 -0.1000 -0.3500
v  0.0000 0.0000 -0.3500
v  0.2000 0.1000 0.1500
v  0.2000 0.1000 0.0500
v  0.2000 0.3000 0.1500
v  0.2000 0.3000 0.0500
# 98 vertices

vn -1.0000 0.0000 -0.0000
vn 1.0000 0.0000 -0.0000
vn 0.0000 0.0000 1.0000
vn 0.0000 0.0000 -1.0000
vn 0.0000 -1.0000 -0.0000
vn 0.0000 1.0000 -0.0000
# 6 vertex normals

vt 0.9941 0.5000 0.0000
vt 0.4551 0.5000 0.0000
vt 0.6426 0.5000 0.0000
vt 0.3691 0.5000 0.0000
# 4 texture coords

o zombie5
g zombie5
f 1/1/1 2/1/1 3/1/1 
f 4/1/1 2/1/1 1/1/1 
f 5/1/1 2/1/1 4/1/1 
f 6/1/1 2/1/1 5/1/1 
f 7/2/1 6/2/1 5/2/1 
f 8/2/1 6/2/1 7/2/1 
f 9/3/1 8/3/1 7/3/1 
f 10/3/1 8/3/1 9/3/1 
f 11/4/1 10/4/1 9/4/1 
f 12/4/1 10/4/1 11/4/1 
f 13/2/1 12/2/1 11/2/1 
f 14/4/1 10/4/1 12/4/1 
f 14/2/1 12/2/1 13/2/1 
f 15/4/1 10/4/1 14/4/1 
f 16/2/1 13/2/1 17/2/1 
f 18/4/1 14/4/1 13/4/1 
f 18/2/1 13/2/1 16/2/1 
f 19/4/1 18/4/1 16/4/1 
f 20/4/1 14/4/1 18/4/1 
f 20/4/1 18/4/1 19/4/1 
f 21/4/1 14/4/1 20/4/1 
f 22/4/1 19/4/1 23/4/1 
f 22/4/1 20/4/1 19/4/1 
f 24/4/1 20/4/1 22/4/1 
f 25/2/1 24/2/1 22/2/1 
f 25/2/1 26/2/1 24/2/1 
f 27/2/1 25/2/1 28/2/1 
f 29/2/1 26/2/1 25/2/1 
f 29/2/1 25/2/1 27/2/1 
f 30/2/1 31/2/1 32/2/1 
f 33/2/1 31/2/1 30/2/1 
f 34/2/1 35/2/1 36/2/1 
f 37/4/1 38/4/1 35/4/1 
f 37/2/1 35/2/1 34/2/1 
f 39/4/1 38/4/1 37/4/1 
f 40/2/1 34/2/1 36/2/1 
f 41/4/1 37/4/1 34/4/1 
f 41/2/1 34/2/1 40/2/1 
f 42/4/1 37/4/1 41/4/1 
f 43/1/2 44/1/2 45/1/2 
f 45/1/2 44/1/2 46/1/2 
f 46/1/2 44/1/2 47/1/2 
f 47/1/2 44/1/2 48/1/2 
f 47/2/2 48/2/2 49/2/2 
f 49/2/2 48/2/2 50/2/2 
f 49/3/2 50/3/2 51/3/2 
f 51/3/2 50/3/2 52/3/2 
f 51/4/2 52/4/2 53/4/2 
f 53/4/2 52/4/2 54/4/2 
f 51/4/2 53/4/2 55/4/2 
f 53/2/2 54/2/2 56/2/2 
f 55/4/2 53/4/2 56/4/2 
f 56/2/2 54/2/2 57/2/2 
f 58/4/2 55/4/2 38/4/2 
f 55/2/2 56/2/2 59/2/2 
f 38/4/2 55/4/2 59/4/2 
f 59/2/2 56/2/2 60/2/2 
f 59/4/2 60/4/2 61/4/2 
f 61/4/2 60/4/2 62/4/2 
f 41/2/2 63/2/2 64/2/2 
f 63/2/2 65/2/2 64/2/2 
f 64/2/2 65/2/2 66/2/2 
f 67/2/2 68/2/2 69/2/2 
f 69/2/2 68/2/2 70/2/2 
f 71/2/2 72/2/2 73/2/2 
f 72/4/2 74/4/2 75/4/2 
f 73/2/2 72/2/2 75/2/2 
f 75/4/2 74/4/2 76/4/2 
f 77/2/2 73/2/2 78/2/2 
f 73/2/2 75/2/2 78/2/2 
f 75/2/2 76/2/2 78/2/2 
f 76/4/2 74/4/2 79/4/2 
f 78/2/2 76/2/2 79/2/2 
f 79/4/2 74/4/2 80/4/2 
f 67/2/3 40/2/3 36/2/3 
f 69/2/3 40/2/3 67/2/3 
f 77/2/3 40/2/3 69/2/3 
f 78/2/3 40/2/3 77/2/3 
f 71/2/3 70/2/3 68/2/3 
f 73/2/3 70/2/3 71/2/3 
f 30/2/3 27/2/3 28/2/3 
f 41/2/3 30/2/3 32/2/3 
f 64/2/3 27/2/3 30/2/3 
f 64/2/3 30/2/3 41/2/3 
f 31/4/3 22/4/3 23/4/3 
f 31/2/3 25/2/3 22/2/3 
f 33/2/3 25/2/3 31/2/3 
f 37/4/3 31/4/3 23/4/3 
f 42/4/3 31/4/3 37/4/3 
f 81/2/3 16/2/3 17/2/3 
f 82/4/3 19/4/3 16/4/3 
f 82/2/3 16/2/3 81/2/3 
f 43/1/3 1/1/3 3/1/3 
f 45/1/3 1/1/3 43/1/3 
f 58/4/3 82/4/3 81/4/3 
f 38/4/3 19/4/3 82/4/3 
f 38/4/3 82/4/3 58/4/3 
f 39/4/3 19/4/3 38/4/3 
f 83/2/3 13/2/3 11/2/3 
f 84/2/3 7/2/3 5/2/3 
f 85/3/3 9/3/3 7/3/3 
f 85/2/3 7/2/3 84/2/3 
f 86/4/3 11/4/3 9/4/3 
f 86/2/3 83/2/3 11/2/3 
f 87/2/3 83/2/3 86/2/3 
f 46/1/3 5/1/3 4/1/3 
f 47/2/3 84/2/3 5/2/3 
f 47/1/3 5/1/3 46/1/3 
f 49/3/3 85/3/3 84/3/3 
f 49/2/3 84/2/3 47/2/3 
f 51/3/3 9/3/3 85/3/3 
f 51/3/3 85/3/3 49/3/3 
f 51/4/3 86/4/3 9/4/3 
f 51/4/3 87/4/3 86/4/3 
f 55/4/3 87/4/3 51/4/3 
f 20/4/4 24/4/4 61/4/4 
f 61/4/4 24/4/4 63/4/4 
f 59/4/4 61/4/4 74/4/4 
f 61/4/4 63/4/4 74/4/4 
f 74/4/4 63/4/4 80/4/4 
f 14/4/4 21/4/4 88/4/4 
f 88/4/4 21/4/4 89/4/4 
f 88/2/4 89/2/4 90/2/4 
f 90/2/4 89/2/4 56/2/4 
f 89/4/4 21/4/4 60/4/4 
f 56/2/4 89/2/4 60/2/4 
f 60/4/4 21/4/4 62/4/4 
f 26/2/4 29/2/4 65/2/4 
f 65/2/4 29/2/4 66/2/4 
f 6/2/4 8/2/4 91/2/4 
f 8/3/4 10/3/4 92/3/4 
f 91/2/4 8/2/4 92/2/4 
f 10/4/4 15/4/4 93/4/4 
f 93/4/4 15/4/4 94/4/4 
f 2/1/4 6/1/4 44/1/4 
f 6/2/4 91/2/4 48/2/4 
f 44/1/4 6/1/4 48/1/4 
f 91/3/4 92/3/4 50/3/4 
f 48/2/4 91/2/4 50/2/4 
f 92/3/4 10/3/4 52/3/4 
f 50/3/4 92/3/4 52/3/4 
f 10/4/4 93/4/4 52/4/4 
f 93/2/4 94/2/4 54/2/4 
f 52/4/4 93/4/4 54/4/4 
f 54/2/4 94/2/4 57/2/4 
f 2/1/5 43/1/5 3/1/5 
f 44/1/5 43/1/5 2/1/5 
f 13/2/5 81/2/5 17/2/5 
f 83/4/5 58/4/5 81/4/5 
f 83/2/5 81/2/5 13/2/5 
f 87/4/5 58/4/5 83/4/5 
f 55/4/5 58/4/5 87/4/5 
f 68/2/5 67/2/5 36/2/5 
f 95/2/5 68/2/5 36/2/5 
f 95/2/5 71/2/5 68/2/5 
f 72/2/5 71/2/5 95/2/5 
f 35/2/5 95/2/5 36/2/5 
f 96/4/5 72/4/5 95/4/5 
f 96/2/5 95/2/5 35/2/5 
f 38/4/5 96/4/5 35/4/5 
f 59/4/5 96/4/5 38/4/5 
f 74/4/5 72/4/5 96/4/5 
f 74/4/5 96/4/5 59/4/5 
f 70/2/5 77/2/5 69/2/5 
f 73/2/5 77/2/5 70/2/5 
f 19/4/5 37/4/5 23/4/5 
f 39/4/5 37/4/5 19/4/5 
f 31/2/5 41/2/5 32/2/5 
f 42/2/5 41/2/5 31/2/5 
f 26/2/5 63/2/5 24/2/5 
f 65/2/5 63/2/5 26/2/5 
f 25/2/5 30/2/5 28/2/5 
f 33/2/5 30/2/5 25/2/5 
f 1/1/6 45/1/6 4/1/6 
f 4/1/6 45/1/6 46/1/6 
f 14/4/6 88/4/6 15/4/6 
f 88/4/6 90/4/6 15/4/6 
f 90/2/6 56/2/6 94/2/6 
f 15/4/6 90/4/6 94/4/6 
f 94/2/6 56/2/6 57/2/6 
f 20/4/6 61/4/6 21/4/6 
f 21/4/6 61/4/6 62/4/6 
f 40/2/6 78/2/6 41/2/6 
f 41/2/6 78/2/6 97/2/6 
f 41/4/6 97/4/6 98/4/6 
f 97/2/6 78/2/6 98/2/6 
f 98/2/6 78/2/6 79/2/6 
f 41/4/6 98/4/6 63/4/6 
f 98/4/6 79/4/6 63/4/6 
f 63/4/6 79/4/6 80/4/6 
f 27/2/6 64/2/6 29/2/6 
f 29/2/6 64/2/6 66/2/6 
# 192 faces

